<svg width="37" height="37" fill="none" xmlns="http://www.w3.org/2000/svg"><path fill-rule="evenodd" clip-rule="evenodd" d="M36.155.849c1.243 1.338.88 2.527.39 4.132-.327 1.068-.71 2.32-.713 3.923-.029 15.497-10.354 26.04-26.908 26.908-1.274.067-2.418.388-3.453.68-1.844.518-3.34.939-4.602-.357-1.26-1.228-.916-2.442-.42-4.187.3-1.055.655-2.305.743-3.869C2.162 10.851 11.937 1.244 28.1 1.171c1.938.157 3.334-.326 4.468-.72 1.424-.492 2.434-.843 3.587.398zM25.27 8.515a.94.94 0 0 1-.791 1.069c-6.73 1.003-12.7 6.663-14.771 14.844a.94.94 0 1 1-1.823-.461c2.223-8.782 8.71-15.109 16.316-16.243a.94.94 0 0 1 1.069.791zm2.02 3.934a.94.94 0 1 1 1.871.182c-.776 7.987-7.126 14.51-16.291 16.373a.94.94 0 1 1-.375-1.842c8.5-1.727 14.112-7.686 14.795-14.713z" fill="#FAB319"/></svg>