<svg width="14" height="20" viewBox="0 0 14 20" fill="none" xmlns="http://www.w3.org/2000/svg">
<path d="M7 0C3.14018 0 0 3.14018 0 6.99996C0 11.7901 6.26431 18.8222 6.53102 19.1193C6.78154 19.3983 7.21892 19.3978 7.46898 19.1193C7.73569 18.8222 14 11.7901 14 6.99996C13.9999 3.14018 10.8598 0 7 0ZM7 17.7326C4.89174 15.2283 1.26057 10.2875 1.26057 7.00004C1.26057 3.83524 3.83525 1.26057 7 1.26057C10.1648 1.26057 12.7394 3.83525 12.7394 7C12.7394 10.2876 9.10879 15.2275 7 17.7326Z" fill="#016349"/>
<path d="M6.99999 3.47754C5.05802 3.47754 3.47815 5.05744 3.47815 6.99942C3.47815 8.94139 5.05805 10.5213 6.99999 10.5213C8.94192 10.5213 10.5218 8.94139 10.5218 6.99942C10.5218 5.05744 8.94192 3.47754 6.99999 3.47754ZM6.99999 9.26072C5.75308 9.26072 4.73872 8.24632 4.73872 6.99942C4.73872 5.75251 5.75312 4.73811 6.99999 4.73811C8.24686 4.73811 9.26126 5.75251 9.26126 6.99942C9.26126 8.24632 8.24686 9.26072 6.99999 9.26072Z" fill="#016349"/>
</svg>
