<svg width="20" height="20" viewBox="0 0 20 20" fill="none" xmlns="http://www.w3.org/2000/svg">
<path d="M4.26336 0C3.87078 0 3.48406 0.140625 3.1618 0.398438L3.11492 0.421875L3.09148 0.445313L0.747734 2.85938L0.771171 2.88281C0.0475381 3.55078 -0.175118 4.5498 0.138359 5.41406C0.141288 5.41992 0.135429 5.43164 0.138359 5.4375C0.774101 7.25684 2.40008 10.7695 5.57586 13.9453C8.76336 17.1328 12.3229 18.6943 14.0837 19.3828H14.1071C15.0182 19.6875 16.0055 19.4707 16.7087 18.8672L19.0759 16.5C19.697 15.8789 19.697 14.8008 19.0759 14.1797L16.029 11.1328L16.0055 11.0859C15.3845 10.4648 14.2829 10.4648 13.6618 11.0859L12.1618 12.5859C11.6198 12.3252 10.3278 11.6572 9.09148 10.4766C7.86394 9.30469 7.23699 7.95703 7.00555 7.42969L8.50555 5.92969C9.13543 5.29981 9.14715 4.25098 8.48211 3.63281L8.50555 3.60938L8.43523 3.53906L5.43523 0.445313L5.4118 0.421875L5.36492 0.398438C5.04266 0.140625 4.65594 0 4.26336 0ZM4.26336 1.5C4.31902 1.5 4.37469 1.52637 4.42742 1.57031L7.42742 4.64063L7.49773 4.71094C7.49187 4.70508 7.54168 4.78418 7.45086 4.875L5.57586 6.75L5.2243 7.07813L5.38836 7.54688C5.38836 7.54688 6.24969 9.85254 8.06023 11.5781L8.2243 11.7188C9.96746 13.3096 12.0212 14.1797 12.0212 14.1797L12.4899 14.3906L14.7165 12.1641C14.8454 12.0352 14.822 12.0352 14.9509 12.1641L18.0212 15.2344C18.1501 15.3633 18.1501 15.3164 18.0212 15.4453L15.7243 17.7422C15.3786 18.0381 15.0124 18.0996 14.5759 17.9531C12.8766 17.2852 9.57488 15.835 6.63055 12.8906C3.66277 9.92285 2.11297 6.55664 1.54461 4.92188C1.43035 4.61719 1.51238 4.16602 1.77898 3.9375L1.82586 3.89063L4.0993 1.57031C4.15203 1.52637 4.20769 1.5 4.26336 1.5Z" fill="#016349"/>
</svg>
