<svg width="15" height="17" viewBox="0 0 15 17" fill="none" xmlns="http://www.w3.org/2000/svg">
<path d="M7.5 0C4.6084 0 2.25 2.3584 2.25 5.25C2.25 7.05762 3.17285 8.66309 4.57031 9.60938C1.89551 10.7578 0 13.4121 0 16.5H1.5C1.5 14.332 2.64551 12.4453 4.35938 11.3906C4.86328 12.627 6.09082 13.5 7.5 13.5C8.90918 13.5 10.1367 12.627 10.6406 11.3906C12.3545 12.4453 13.5 14.332 13.5 16.5H15C15 13.4121 13.1045 10.7578 10.4297 9.60938C11.8271 8.66309 12.75 7.05762 12.75 5.25C12.75 2.3584 10.3916 0 7.5 0ZM7.5 1.5C9.58008 1.5 11.25 3.16992 11.25 5.25C11.25 7.33008 9.58008 9 7.5 9C5.41992 9 3.75 7.33008 3.75 5.25C3.75 3.16992 5.41992 1.5 7.5 1.5ZM7.5 10.5C8.11523 10.5 8.70117 10.5879 9.25781 10.7578C8.99707 11.4814 8.31738 12 7.5 12C6.68262 12 6.00293 11.4814 5.74219 10.7578C6.29883 10.5879 6.88477 10.5 7.5 10.5Z" fill="#016349"/>
</svg>
