<svg width="100" height="100" viewBox="0 0 100 100" fill="none" xmlns="http://www.w3.org/2000/svg">
<circle cx="50" cy="50" r="50" fill="#016349"/>
<path d="M77.7571 62.0984C78.0212 61.2511 78.097 60.3563 77.9793 59.4766C77.8615 58.5969 77.5531 57.7536 77.0756 57.0055C76.3275 55.8492 75.2178 54.973 73.9195 54.5136C72.6212 54.0541 71.2073 54.0373 69.8985 54.4658L57.9116 58.5764C57.4925 57.5081 56.7795 56.5802 55.8552 55.9001C54.9309 55.22 53.8329 54.8153 52.6883 54.733C47.9386 54.3821 43.4473 52.435 39.9443 49.2084C37.6058 47.0777 34.5522 45.9033 31.3887 45.9179H22.0861C21.564 45.9179 21.0632 46.1253 20.694 46.4945C20.3248 46.8637 20.1174 47.3645 20.1174 47.8866C20.1174 48.4088 20.3248 48.9095 20.694 49.2787C21.0632 49.6479 21.564 49.8554 22.0861 49.8554H31.3887C33.5668 49.8415 35.6707 50.6464 37.2834 52.1106C41.4346 55.9338 46.7564 58.2415 52.3845 58.659C52.8049 58.6834 53.2089 58.8307 53.5464 59.0826C53.8839 59.3344 54.1401 59.6798 54.2831 60.0759C54.4613 60.6028 54.4246 61.1787 54.181 61.6786C53.9373 62.1786 53.5063 62.5623 52.9815 62.7464L49.6006 63.9231C49.082 64.1062 48.5121 64.0765 48.0154 63.8404L34.6311 57.5861C34.3968 57.4766 34.1433 57.4144 33.8849 57.403C33.6266 57.3915 33.3685 57.431 33.1254 57.5193C32.8824 57.6076 32.6591 57.7429 32.4683 57.9175C32.2775 58.0921 32.123 58.3025 32.0135 58.5368C31.9041 58.7711 31.8418 59.0247 31.8304 59.283C31.8189 59.5414 31.8585 59.7995 31.9468 60.0425C32.035 60.2856 32.1703 60.5089 32.3449 60.6997C32.5195 60.8905 32.7299 61.045 32.9642 61.1544L46.3456 67.4068C47.1458 67.7847 48.0196 67.9811 48.9046 67.9816C49.5825 67.9799 50.2554 67.8649 50.8954 67.6413L54.2754 66.4647C55.1352 66.1613 55.9148 65.6665 56.5553 65.0177C57.1958 64.3688 57.6805 63.5829 57.9727 62.7192L71.1577 58.1975C71.6297 58.046 72.1383 58.0531 72.6058 58.2176C73.0734 58.3822 73.4744 58.6951 73.7475 59.1088C73.919 59.3784 74.0298 59.682 74.0722 59.9987C74.1146 60.3154 74.0875 60.6376 73.9928 60.9427C73.8981 61.2479 73.7381 61.5288 73.524 61.7659C73.3098 62.003 73.0465 62.1906 72.7525 62.3157L51.5933 71.2347C50.4685 71.7068 49.2577 71.9397 48.038 71.9185C46.8183 71.8973 45.6163 71.6225 44.5085 71.1116L31.603 65.1207C30.6563 64.6851 29.6773 64.3232 28.6749 64.0383L21.4728 62.0022C21.2241 61.9319 20.964 61.9113 20.7073 61.9415C20.4507 61.9717 20.2024 62.0522 19.9769 62.1783C19.7513 62.3045 19.5528 62.4738 19.3926 62.6767C19.2325 62.8795 19.1139 63.1119 19.0436 63.3606C18.9733 63.6093 18.9526 63.8694 18.9829 64.1261C19.0131 64.3828 19.0935 64.631 19.2197 64.8566C19.3458 65.0821 19.5152 65.2807 19.718 65.4408C19.9209 65.6009 20.1533 65.7195 20.402 65.7899L27.6136 67.8297C28.4198 68.0601 29.2072 68.3519 29.9688 68.7026L42.8551 74.6857C44.4609 75.4262 46.2032 75.8243 47.9713 75.8547C49.7393 75.8852 51.4943 75.5473 53.1247 74.8626L74.2848 65.9436C75.1092 65.5951 75.8473 65.0702 76.4472 64.4059C77.047 63.7416 77.4942 62.954 77.7571 62.0984Z" fill="white"/>
<path d="M69.7024 36.4807C69.7024 33.8429 68.9204 31.2644 67.455 29.0712C65.9896 26.8779 63.9068 25.1684 61.4699 24.1589C59.0329 23.1494 56.3514 22.8852 53.7643 23.3997C51.1772 23.9142 48.8008 25.1843 46.9356 27.0494C45.0704 28.9145 43.8001 31.2909 43.2854 33.8779C42.7707 36.4649 43.0347 39.1465 44.0441 41.5835C45.0534 44.0205 46.7627 46.1034 48.9559 47.569C51.149 49.0345 53.7275 49.8168 56.3652 49.8169C59.9011 49.8128 63.2909 48.4065 65.7912 45.9064C68.2915 43.4063 69.6981 40.0165 69.7024 36.4807ZM46.9666 36.4807C46.9665 34.6217 47.5176 32.8044 48.5504 31.2586C49.5832 29.7129 51.0511 28.5081 52.7686 27.7966C54.4861 27.0852 56.376 26.899 58.1993 27.2616C60.0226 27.6243 61.6974 28.5195 63.0119 29.834C64.3264 31.1485 65.2216 32.8233 65.5843 34.6466C65.9469 36.4699 65.7608 38.3598 65.0493 40.0773C64.3378 41.7948 63.1331 43.2628 61.5873 44.2955C60.0415 45.3283 58.2242 45.8794 56.3652 45.8794C53.8734 45.8765 51.4845 44.8853 49.7226 43.1234C47.9606 41.3614 46.9694 38.9725 46.9666 36.4807Z" fill="white"/>
<path d="M58.0879 43.2722C58.6101 43.2722 59.1108 43.0647 59.48 42.6955C59.8492 42.3263 60.0566 41.8256 60.0567 41.3034V31.6577C60.0566 31.1356 59.8492 30.6348 59.48 30.2656C59.1108 29.8964 58.6101 29.689 58.0879 29.689H54.6436C54.1214 29.689 53.6206 29.8964 53.2514 30.2656C52.8822 30.6348 52.6748 31.1356 52.6748 31.6577C52.6748 32.1799 52.8822 32.6806 53.2514 33.0498C53.6206 33.419 54.1214 33.6265 54.6436 33.6265H56.1192V41.3034C56.1192 41.8256 56.3266 42.3263 56.6958 42.6955C57.065 43.0648 57.5658 43.2722 58.0879 43.2722Z" fill="white"/>
</svg>
