<svg width="100" height="100" viewBox="0 0 100 100" fill="none" xmlns="http://www.w3.org/2000/svg">
<circle cx="50" cy="50" r="50" fill="#016349"/>
<path d="M50.5 51.0937C56.5562 51.0937 61.4833 46.1672 61.4833 40.1118C61.4833 34.0565 56.5562 29.1301 50.5 29.1301C44.4438 29.1301 39.5167 34.0565 39.5167 40.1118C39.5167 46.1672 44.4438 51.0937 50.5 51.0937ZM50.5 33.0554C54.3915 33.0554 57.5575 36.221 57.5575 40.1118C57.5575 44.0028 54.3916 47.1684 50.5 47.1684C46.6084 47.1684 43.4425 44.0028 43.4425 40.1118C43.4425 36.221 46.6085 33.0554 50.5 33.0554Z" fill="white"/>
<path d="M38.541 59.8453C41.5161 63.8727 40.3208 62.3065 48.8902 74.5412C49.669 75.6575 51.3253 75.6628 52.1086 74.5429C60.7167 62.2501 59.5323 63.807 62.459 59.8451C65.4236 55.8314 68.4894 51.6811 70.1693 46.8176C72.6008 39.7772 71.5498 32.8112 67.2101 27.2025C67.2099 27.2025 67.2099 27.2024 67.2098 27.2024C63.2346 22.0663 56.9879 19 50.5 19C44.0121 19 37.7654 22.0663 33.79 27.2027C29.4503 32.8113 28.3993 39.7775 30.8309 46.8178C32.5106 51.6812 35.5764 55.8316 38.541 59.8453ZM36.8948 29.6047C40.132 25.4223 45.2181 22.9253 50.5 22.9253C55.7819 22.9253 60.868 25.4223 64.1052 29.6047L64.1049 29.6046C67.6076 34.1313 68.4433 39.7894 66.4584 45.5364C64.9746 49.8323 62.0903 53.737 59.3011 57.5132C57.1293 60.4532 57.7793 59.554 50.5 69.9884C43.2283 59.5644 43.87 60.4523 41.6989 57.5132C38.9096 53.737 36.0254 49.8322 34.5416 45.5364C32.5567 39.7892 33.3923 34.1313 36.8948 29.6047Z" fill="white"/>
<path d="M40.1532 68.3559C39.5743 67.4396 38.362 67.1657 37.4455 67.7448L31.8643 71.2698C30.6468 72.0387 30.6456 73.8186 31.8643 74.5884L49.4518 85.6967C50.0921 86.1012 50.9082 86.1011 51.5483 85.6967L69.1358 74.5884C70.3535 73.8194 70.3545 72.0395 69.1358 71.2698L63.5547 67.7448C62.6379 67.1659 61.4257 67.4396 60.8469 68.3559C60.2679 69.2723 60.5416 70.4845 61.4582 71.0634L64.4122 72.9291L50.5 81.716L36.588 72.9291L39.542 71.0634C40.4585 70.4846 40.7321 69.2724 40.1532 68.3559Z" fill="white"/>
</svg>
