<svg width="100" height="100" viewBox="0 0 100 100" fill="none" xmlns="http://www.w3.org/2000/svg">
<circle cx="50" cy="50" r="50" fill="#016349"/>
<path d="M71.8182 45.1719H61.4998C63.6227 42.5648 64.8203 39.2806 64.8203 35.8203C64.8203 27.6484 58.1719 21 50 21C41.8281 21 35.1797 27.6484 35.1797 35.8203C35.1797 39.2806 36.3773 42.5648 38.5002 45.1719H28.1818L22 58.1862C22 59.8508 22 72.9019 22 74.7031H78C78 72.8536 78 61.1487 78 58.1862L71.8182 45.1719ZM38.4609 35.8203C38.4609 29.4578 43.6375 24.2812 50 24.2812C56.3625 24.2812 61.5391 29.4578 61.5391 35.8203C61.5391 39.7014 59.6053 43.2993 56.3655 45.4453C54.4771 46.6976 52.2759 47.3594 50 47.3594C47.7241 47.3594 45.5225 46.6976 43.6336 45.4449C40.3947 43.2993 38.4609 39.7014 38.4609 35.8203ZM30.2557 48.4531H42.2498C44.5791 49.8857 47.2473 50.6406 50 50.6406C52.7532 50.6406 55.4213 49.8853 57.7502 48.4531H69.7443L74.4201 58.2969H25.5799L30.2557 48.4531ZM74.7188 71.4219H25.2812V61.5781H74.7188V71.4219Z" fill="white"/>
<path d="M50 45.1719C55.1564 45.1719 59.3516 40.9767 59.3516 35.8203C59.3516 30.6639 55.1564 26.4688 50 26.4688C44.8436 26.4688 40.6484 30.6639 40.6484 35.8203C40.6484 40.9767 44.8436 45.1719 50 45.1719ZM50 29.75C53.347 29.75 56.0703 32.4733 56.0703 35.8203C56.0703 39.1674 53.347 41.8906 50 41.8906C46.653 41.8906 43.9297 39.1674 43.9297 35.8203C43.9297 32.4733 46.653 29.75 50 29.75Z" fill="white"/>
<path d="M35.6172 51.7344H64.3828V55.0156H35.6172V51.7344Z" fill="white"/>
</svg>
