<svg width="100" height="100" viewBox="0 0 100 100" fill="none" xmlns="http://www.w3.org/2000/svg">
<circle cx="50" cy="50" r="50" fill="#016349"/>
<path d="M17.001 69.4122V30.5896C17.001 29.7805 17.5029 29.0562 18.2605 28.7721L49.3185 17.1253C49.8024 16.9438 50.2987 16.9681 50.7275 17.1426L81.7397 28.7721C82.4974 29.0562 82.9992 29.7805 82.9992 30.5896V69.4122C82.9992 70.291 82.4302 70.9941 81.6842 71.2505L50.6816 82.8765C50.2422 83.0413 49.7579 83.0413 49.3185 82.8765L18.3159 71.2505C17.57 70.9941 17.001 70.2908 17.001 69.4122ZM71.3525 63.6995L79.117 66.6112V41.6405L51.9412 31.4495V56.4202L57.7645 58.604V41.0232C57.7645 39.6679 59.1182 38.7297 60.3871 39.2056L70.0928 42.8452C70.8504 43.1293 71.3523 43.8536 71.3523 44.6627V63.6995H71.3525ZM61.6469 43.8242V60.0598L67.4702 62.2436V46.008L61.6469 43.8242ZM24.4704 69.4122L50.0001 78.9859L75.5299 69.4122L50.0001 59.8386L24.4704 69.4122ZM48.059 31.4495L20.8831 41.6405V66.6112L48.059 56.4202V31.4495ZM51.9413 27.3034L79.1171 37.4943V31.9349L51.9413 21.7439V27.3034ZM20.8831 37.4943L48.059 27.3034V21.7439L20.8831 31.9349V37.4943ZM24.7654 56.7948V47.0892C24.7654 46.2801 25.2674 45.5558 26.025 45.2717L41.554 39.4484C42.8231 38.9725 44.1767 39.9106 44.1767 41.2659V50.9715C44.1767 51.7806 43.6747 52.5049 42.9172 52.789L27.3881 58.6124C26.1192 59.0883 24.7654 58.1502 24.7654 56.7948ZM40.2945 49.6263V44.0668L28.6477 48.4343V53.9938L40.2945 49.6263Z" fill="white"/>
</svg>
