<svg width="100" height="100" viewBox="0 0 100 100" fill="none" xmlns="http://www.w3.org/2000/svg">
<circle cx="50" cy="50" r="50" fill="#016349"/>
<path d="M76.6485 54.9188H73.5133H66.4593V38.4594C66.4593 29.3837 59.0758 22 49.9999 22C40.9241 22 33.5406 29.3837 33.5406 38.4594V54.9188H26.4865H23.3514C22.0528 54.9188 21 55.9716 21 57.2702C21 58.5687 22.0528 59.6215 23.3514 59.6215H24.1352V71.3783C24.1352 72.6768 25.188 73.7297 26.4865 73.7297H73.5135C74.812 73.7297 75.8648 72.6768 75.8648 71.3783V59.6215H76.6486C77.9472 59.6215 79 58.5687 79 57.2702C79 55.9716 77.9472 54.9188 76.6485 54.9188ZM33.5406 69.0269H28.8378V59.6215H33.5404V69.0269H33.5406ZM47.6486 26.9392V38.4594H38.2432C38.2432 32.7819 42.2888 28.0316 47.6486 26.9392ZM38.2432 43.162H47.6486V54.9188H38.2432V43.162ZM42.9459 69.0269H38.2433V59.6215H42.9459V69.0269ZM52.3513 69.0269H47.6486V59.6215H52.3513V69.0269ZM61.7567 69.0269H57.054V59.6215H61.7567V69.0269ZM61.7567 54.9188H52.3513V43.162H61.7567V54.9188ZM52.3513 38.4594V26.9392C57.7111 28.0316 61.7567 32.7818 61.7567 38.4594H52.3513ZM71.1621 69.0269H66.4593V59.6215H71.1621V69.0269Z" fill="white"/>
</svg>
