<svg width="87" height="78" fill="none" xmlns="http://www.w3.org/2000/svg"><g clip-path="url(#a)"><path d="M38.203.768H.768V38.19h37.435V.77z" fill="url(#b)"/><path d="M38.967 38.967H0V0h38.967v38.967zM.768 38.199h37.43V.768H.769v37.43z" fill="#fff"/><path d="M14.484 11.628c.719.227 1.387.59 1.97 1.067a5.312 5.312 0 0 1 1.354 1.69c.346.692.555 1.444.613 2.215h-3.162c-.217-.897-.571-1.554-1.062-1.97-.49-.415-1.162-.625-2.017-.63-1.264 0-2.237.456-2.92 1.365-.683.91-1.024 2.215-1.023 3.917 0 1.073.15 1.987.45 2.74a3.78 3.78 0 0 0 1.299 1.737 3.403 3.403 0 0 0 2.032.607c1.648 0 2.728-.964 3.241-2.892h3.16a8.63 8.63 0 0 1-.396 1.703 5.445 5.445 0 0 1-.782 1.376 5.932 5.932 0 0 1-2.255 1.906 6.819 6.819 0 0 1-3.014.658 7.44 7.44 0 0 1-2.91-.542 6.104 6.104 0 0 1-2.204-1.556 6.983 6.983 0 0 1-1.392-2.472 10.225 10.225 0 0 1-.49-3.26c0-1.617.29-3.03.869-4.238a6.452 6.452 0 0 1 2.483-2.798c1.077-.657 2.315-.985 3.713-.985a7.824 7.824 0 0 1 2.443.362zM20.938 17.137a3.658 3.658 0 0 1 1.65-1.33 6.23 6.23 0 0 1 2.438-.442c1.083 0 1.983.12 2.698.362a3.005 3.005 0 0 1 1.645 1.27c.381.607.572 1.439.571 2.495v5.62c0 .723.183 1.294.549 1.714H27.46a4.319 4.319 0 0 1-.374-.711 3.065 3.065 0 0 1-.127-.793c-.599.691-1.159 1.163-1.68 1.416-.52.253-1.185.38-1.994.38-.98 0-1.774-.31-2.384-.927-.61-.618-.914-1.424-.915-2.42 0-.97.243-1.744.729-2.32.485-.576 1.23-.965 2.233-1.166a34.321 34.321 0 0 1 3.981-.524c0-.755-.12-1.296-.36-1.626-.24-.33-.757-.495-1.551-.496-.638 0-1.102.133-1.394.397-.292.265-.48.671-.565 1.22h-2.735c-.012-.752.201-1.49.613-2.12zm2.011 6.366a1.129 1.129 0 0 0 .43.921c.322.244.717.368 1.12.35.894 0 1.526-.226 1.896-.678.37-.451.557-1.061.561-1.83v-.678l-2.123.384c-1.257.217-1.885.727-1.884 1.531zM1.769 34.804l1.134-1.65h.718v1.787h.3v.486h-.3v.622h-.576v-.621H1.769v-.624zm.447.136h.829v-1.206l-.829 1.206zM4.286 35.613a1.691 1.691 0 0 1-.099-.348l.558-.022a.595.595 0 0 0 .155.283c.076.06.173.09.27.084a.384.384 0 0 0 .308-.135.542.542 0 0 0 .111-.362.596.596 0 0 0-.108-.382.375.375 0 0 0-.31-.135.48.48 0 0 0-.206.039.687.687 0 0 0-.185.145l-.5-.022.21-1.591h1.58v.493H4.89l-.108.615a.892.892 0 0 1 .252-.126.93.93 0 0 1 .27-.037.868.868 0 0 1 .454.117.8.8 0 0 1 .308.325c.075.152.113.32.11.49a1.18 1.18 0 0 1-.126.554.888.888 0 0 1-.36.371 1.074 1.074 0 0 1-.534.136 1.103 1.103 0 0 1-.49-.103.766.766 0 0 1-.329-.296.79.79 0 0 1-.051-.093zM6.63 35.45h.603v.6h-.602v-.6zM8.247 35.979a.812.812 0 0 1-.302-.34 1.639 1.639 0 0 1-.144-.472c-.026-.179-.04-.36-.04-.541 0-.523.083-.908.246-1.156a.988.988 0 0 1 1.372-.168c.148.139.251.318.298.515.057.228.084.462.081.697a4.43 4.43 0 0 1-.033.575c-.02.171-.066.339-.136.497a.969.969 0 0 1-1.338.393h-.004zm.096-1.355c-.01.253.017.507.082.752.026.07.073.132.136.173a.366.366 0 0 0 .211.061.32.32 0 0 0 .19-.053.371.371 0 0 0 .12-.172 1.33 1.33 0 0 0 .068-.313c.017-.159.024-.319.023-.479.004-.2-.009-.4-.036-.597a.604.604 0 0 0-.122-.312.359.359 0 0 0-.542.07c-.087.15-.13.44-.13.87zM10.105 35.58a.82.82 0 0 1-.049-.194 2.357 2.357 0 0 1-.017-.26h.554a.99.99 0 0 0 .063.278c.026.066.074.121.136.156a.46.46 0 0 0 .222.05.421.421 0 0 0 .214-.053.357.357 0 0 0 .144-.15.475.475 0 0 0 .05-.225.358.358 0 0 0-.136-.324 1.03 1.03 0 0 0-.5-.094v-.422a.847.847 0 0 0 .45-.097.348.348 0 0 0 .136-.308.333.333 0 0 0-.1-.253.37.37 0 0 0-.27-.093.355.355 0 0 0-.283.104.64.64 0 0 0-.113.358h-.524c.003-.131.022-.26.057-.386a.777.777 0 0 1 .145-.26.882.882 0 0 1 .731-.31c.167-.003.333.03.485.1.13.062.24.16.315.283.075.129.114.277.11.426a.655.655 0 0 1-.078.321.818.818 0 0 1-.244.271.833.833 0 0 1 .31.271c.07.12.105.258.1.397a.968.968 0 0 1-.124.496.846.846 0 0 1-.353.332c-.162.08-.34.12-.52.117a1.187 1.187 0 0 1-.484-.097.817.817 0 0 1-.427-.435zM13.01 33.811a1.826 1.826 0 0 0-.127.57.917.917 0 0 1 .271-.198.783.783 0 0 1 .312-.06.866.866 0 0 1 .447.115.77.77 0 0 1 .306.33c.075.153.112.321.108.491a1.17 1.17 0 0 1-.12.542.869.869 0 0 1-.344.368 1 1 0 0 1-.512.136.877.877 0 0 1-.762-.358c-.171-.238-.257-.585-.258-1.04 0-.542.088-.948.261-1.211a.89.89 0 0 1 .8-.399.85.85 0 0 1 .589.19.96.96 0 0 1 .27.581h-.555a.406.406 0 0 0-.116-.212.312.312 0 0 0-.208-.065.363.363 0 0 0-.363.22zm.016.931a.526.526 0 0 0-.111.358.552.552 0 0 0 .115.37.387.387 0 0 0 .31.136.355.355 0 0 0 .296-.135.6.6 0 0 0 .105-.374.542.542 0 0 0-.106-.355.36.36 0 0 0-.295-.136.396.396 0 0 0-.314.14v-.004zM15.958 35.488a.642.642 0 0 0 .144-.27c.029-.13.05-.263.063-.396a1.139 1.139 0 0 1-.281.195.714.714 0 0 1-.298.06.873.873 0 0 1-.458-.118.778.778 0 0 1-.302-.33 1.082 1.082 0 0 1-.107-.494 1.231 1.231 0 0 1 .068-.416.948.948 0 0 1 .199-.329.867.867 0 0 1 .308-.214c.125-.05.258-.075.392-.074a.905.905 0 0 1 .613.197c.156.136.268.315.323.514.064.223.096.454.093.687 0 .541-.09.948-.27 1.219a.893.893 0 0 1-.801.397 1.027 1.027 0 0 1-.428-.082.652.652 0 0 1-.283-.252 1.133 1.133 0 0 1-.146-.432h.541c.021.08.063.151.122.207a.299.299 0 0 0 .2.064.366.366 0 0 0 .308-.133zm.06-1.036a.53.53 0 0 0 .107-.352.582.582 0 0 0-.109-.374.374.374 0 0 0-.31-.135.363.363 0 0 0-.3.135.575.575 0 0 0-.106.37.517.517 0 0 0 .112.353.417.417 0 0 0 .606 0v.003zM17.2 33.656c.101-.002.202-.008.302-.02a.653.653 0 0 0 .216-.064.417.417 0 0 0 .164-.152.79.79 0 0 0 .104-.271h.44v2.895h-.571v-1.989H17.2v-.4zM19.583 35.979a.812.812 0 0 1-.302-.34 1.595 1.595 0 0 1-.136-.472c-.027-.179-.04-.36-.039-.541 0-.523.082-.908.245-1.156a.989.989 0 0 1 1.373-.168c.147.14.25.318.298.515.056.228.083.462.08.697.001.192-.01.384-.033.575-.02.171-.066.339-.135.497a.97.97 0 0 1-1.34.393h-.01zm.096-1.355c-.01.254.017.507.084.752.025.07.073.132.136.173a.373.373 0 0 0 .211.061.317.317 0 0 0 .19-.053.362.362 0 0 0 .12-.172c.036-.1.06-.206.07-.313.015-.159.023-.319.02-.479.004-.2-.008-.4-.034-.597a.604.604 0 0 0-.123-.312.36.36 0 0 0-.542.07c-.088.15-.132.44-.132.87zM3.183 3.477h1.761v.447h-1.26v.52h1.153v.42H3.686v.625H5v.447H3.183V3.477zM5.279 5.433a1.237 1.237 0 0 1-.045-.27h.484a.467.467 0 0 0 .174.31c.11.068.237.1.366.093a.607.607 0 0 0 .327-.079.238.238 0 0 0 .123-.208c0-.088-.067-.159-.2-.209l-.75-.29a1.22 1.22 0 0 1-.254-.135.553.553 0 0 1-.225-.465.695.695 0 0 1 .43-.653c.149-.064.31-.095.473-.092.247-.016.492.056.691.203a.784.784 0 0 1 .264.592h-.492a.469.469 0 0 0-.143-.294.482.482 0 0 0-.312-.09.64.64 0 0 0-.215.035.358.358 0 0 0-.15.1.214.214 0 0 0-.055.144c0 .084.057.147.171.19l.767.29c.143.047.273.126.382.23a.542.542 0 0 1 .123.381.7.7 0 0 1-.079.33.77.77 0 0 1-.414.365.993.993 0 0 1-.206.054c-.087.015-.176.02-.264.02-.41 0-.7-.12-.875-.358a.667.667 0 0 1-.096-.194zM7.4 3.477h1.964v.447h-.72v2.012h-.506V3.924h-.733L7.4 3.477zM10.858 5.936a.926.926 0 0 1 .15-.542c.123-.17.27-.319.437-.444.147-.111.286-.233.414-.365a.493.493 0 0 0 .128-.35.377.377 0 0 0-.08-.258.28.28 0 0 0-.221-.092.295.295 0 0 0-.256.111.677.677 0 0 0-.088.366h-.455a1.663 1.663 0 0 1 .021-.294.75.75 0 0 1 .068-.21.608.608 0 0 1 .125-.168.79.79 0 0 1 .575-.216.879.879 0 0 1 .424.098.677.677 0 0 1 .28.27.824.824 0 0 1 .098.407.777.777 0 0 1-.1.407 1.177 1.177 0 0 1-.297.32l-.363.277a1.481 1.481 0 0 0-.27.26h1.018v.419l-1.608.004zM13.177 5.876a.685.685 0 0 1-.25-.283c-.06-.124-.1-.256-.12-.393-.022-.15-.033-.3-.032-.45 0-.436.068-.757.204-.963a.82.82 0 0 1 1.142-.135.881.881 0 0 1 .25.43c.046.19.068.385.066.58 0 .16-.009.32-.027.479a1.473 1.473 0 0 1-.117.414.711.711 0 0 1-.696.432.77.77 0 0 1-.42-.11zm.082-1.127c-.01.211.014.422.069.626a.28.28 0 0 0 .108.144.31.31 0 0 0 .176.051.27.27 0 0 0 .159-.045.301.301 0 0 0 .1-.135c.03-.085.049-.172.057-.262.014-.135.02-.27.019-.406a3.36 3.36 0 0 0-.03-.497.498.498 0 0 0-.103-.259.258.258 0 0 0-.198-.078.261.261 0 0 0-.253.135c-.069.125-.104.367-.104.726zM14.669 5.936a.936.936 0 0 1 .149-.542c.123-.17.27-.319.437-.444a3.81 3.81 0 0 0 .415-.365.492.492 0 0 0 .127-.35.378.378 0 0 0-.081-.258.278.278 0 0 0-.221-.092.296.296 0 0 0-.256.111.684.684 0 0 0-.087.366h-.455a1.808 1.808 0 0 1 .02-.294.666.666 0 0 1 .192-.378.79.79 0 0 1 .576-.216.884.884 0 0 1 .426.098.678.678 0 0 1 .279.27c.066.126.1.266.099.407a.766.766 0 0 1-.102.407 1.178 1.178 0 0 1-.297.32l-.361.277c-.1.075-.192.163-.271.26h1.02v.419l-1.61.004zM16.988 5.876a.698.698 0 0 1-.252-.283 1.367 1.367 0 0 1-.118-.393c-.023-.149-.035-.3-.034-.45 0-.436.07-.757.205-.963a.822.822 0 0 1 1.143-.135.87.87 0 0 1 .248.43c.047.19.07.385.067.58.001.16-.008.32-.028.479a1.431 1.431 0 0 1-.117.414.71.71 0 0 1-.694.432.762.762 0 0 1-.42-.11zm.08-1.127c-.01.211.014.422.07.626.019.059.057.11.108.144a.306.306 0 0 0 .177.051.26.26 0 0 0 .157-.045.291.291 0 0 0 .1-.135c.03-.085.049-.172.057-.262.014-.135.02-.27.019-.406a3.18 3.18 0 0 0-.03-.497.51.51 0 0 0-.102-.259.298.298 0 0 0-.45.057c-.071.125-.106.367-.106.726zM32.015 5.834h.759v.324h-.759v-.324zM33.274 6.694a.555.555 0 0 1-.202-.227c-.047-.1-.08-.206-.095-.315a2.392 2.392 0 0 1-.026-.361 1.43 1.43 0 0 1 .163-.77.658.658 0 0 1 .914-.112c.1.092.169.212.2.344.037.152.055.308.053.465.001.128-.006.256-.021.383a1.185 1.185 0 0 1-.094.33.61.61 0 0 1-.207.252.595.595 0 0 1-.35.095.618.618 0 0 1-.335-.084zm.063-.903c-.007.169.012.338.056.501a.234.234 0 0 0 .088.116.243.243 0 0 0 .261.005.241.241 0 0 0 .08-.114.893.893 0 0 0 .046-.209c.011-.106.016-.213.015-.32a2.538 2.538 0 0 0-.024-.398.407.407 0 0 0-.081-.207.24.24 0 0 0-.362.046 1.339 1.339 0 0 0-.079.58zM34.55 5.888a.56.56 0 0 1 .233-.192.355.355 0 0 1-.25-.371.542.542 0 0 1 .076-.29.492.492 0 0 1 .216-.194c.1-.046.21-.07.32-.067.11-.003.219.02.319.065a.487.487 0 0 1 .283.457.426.426 0 0 1-.06.237.458.458 0 0 1-.195.156.605.605 0 0 1 .175.111.392.392 0 0 1 .099.152.561.561 0 0 1 .034.205.616.616 0 0 1-.084.32.561.561 0 0 1-.234.219.775.775 0 0 1-.349.076.677.677 0 0 1-.482-.16.565.565 0 0 1-.176-.434.512.512 0 0 1 .075-.29zm.39.065a.335.335 0 0 0 0 .416.253.253 0 0 0 .198.08.27.27 0 0 0 .196-.078.27.27 0 0 0 .077-.202.322.322 0 0 0-.034-.153.255.255 0 0 0-.095-.102.271.271 0 0 0-.144-.035.263.263 0 0 0-.198.074zm.032-.787a.221.221 0 0 0-.068.167.232.232 0 0 0 .149.222.23.23 0 0 0 .093.015.214.214 0 0 0 .229-.23.236.236 0 0 0-.063-.174.225.225 0 0 0-.166-.063.246.246 0 0 0-.174.063zM36.321 6.694a.556.556 0 0 1-.201-.227c-.048-.1-.08-.206-.095-.315a2.405 2.405 0 0 1-.026-.361 1.43 1.43 0 0 1 .163-.77.658.658 0 0 1 .914-.112c.1.092.169.212.199.344.038.152.056.308.054.465.001.128-.006.256-.022.383a1.185 1.185 0 0 1-.093.33.61.61 0 0 1-.207.252.594.594 0 0 1-.35.095.618.618 0 0 1-.336-.084zm.064-.903c-.007.169.012.338.056.501a.234.234 0 0 0 .088.116.242.242 0 0 0 .261.005.241.241 0 0 0 .08-.114.893.893 0 0 0 .046-.209 3.02 3.02 0 0 0 .015-.32 2.55 2.55 0 0 0-.024-.398.406.406 0 0 0-.082-.207.239.239 0 0 0-.361.046 1.339 1.339 0 0 0-.079.58zM31.434 9.394v-.271h.516v-.498h.271v.498h.516v.271h-.516v.508h-.27v-.508h-.517zM32.942 10.21a.736.736 0 0 1 .12-.433c.099-.135.216-.254.35-.355.117-.089.227-.186.33-.29a.392.392 0 0 0 .103-.281.304.304 0 0 0-.065-.207.224.224 0 0 0-.177-.074.238.238 0 0 0-.205.088.55.55 0 0 0-.069.293h-.364c-.001-.078.004-.157.016-.234a.511.511 0 0 1 .154-.305.632.632 0 0 1 .461-.174.697.697 0 0 1 .34.08.542.542 0 0 1 .224.216.657.657 0 0 1 .078.329.621.621 0 0 1-.08.322.947.947 0 0 1-.238.256l-.29.222c-.08.06-.152.13-.214.21h.813v.334l-1.287.002zM34.61 8.616c.067 0 .134-.005.201-.013a.443.443 0 0 0 .144-.042.28.28 0 0 0 .11-.102.553.553 0 0 0 .069-.177h.293v1.93h-.38V8.887h-.438v-.27zM36.321 10.162a.56.56 0 0 1-.201-.226c-.047-.1-.08-.206-.095-.314a2.38 2.38 0 0 1-.026-.362 1.434 1.434 0 0 1 .163-.77.658.658 0 0 1 .914-.113.687.687 0 0 1 .199.344c.038.152.056.308.054.464.001.128-.006.256-.022.384a1.194 1.194 0 0 1-.093.332.614.614 0 0 1-.207.25.595.595 0 0 1-.35.095.606.606 0 0 1-.336-.084zm.064-.902c-.007.169.012.338.056.501a.235.235 0 0 0 .223.156.22.22 0 0 0 .126-.035.256.256 0 0 0 .08-.114.926.926 0 0 0 .046-.21 3.02 3.02 0 0 0 .015-.32 2.55 2.55 0 0 0-.024-.398.406.406 0 0 0-.082-.207.205.205 0 0 0-.158-.063.21.21 0 0 0-.203.109 1.354 1.354 0 0 0-.079.58z" fill="#fff"/><path d="M77.167 38.966H38.968v38.199h38.2v-38.2z" fill="url(#c)"/><path d="M77.935 77.931H38.968V38.966h38.967V77.93zm-38.199-.766h37.431V39.732h-37.43v37.433z" fill="#fff"/><path d="M46.707 50.505h6.637c.787-.018 1.574.043 2.35.182a3.68 3.68 0 0 1 1.474.658c1.003.755 1.504 1.804 1.504 3.148a2.827 2.827 0 0 1-.373 1.387c-.252.454-.6.849-1.02 1.155-.408.308-.88.52-1.381.618a3.259 3.259 0 0 1 1.625.454c.51.3.926.736 1.202 1.26a3.95 3.95 0 0 1 .443 1.912 5.036 5.036 0 0 1-.52 2.314 3.672 3.672 0 0 1-1.684 1.61c-.778.392-1.796.588-3.055.588h-7.202V50.505zm3.123 6.063h3.16c.926 0 1.564-.124 1.919-.372s.53-.678.53-1.295c-.015-.568-.2-.98-.554-1.236-.355-.255-.964-.383-1.825-.384h-3.23v3.287zm0 2.566v3.882h3.055c1.167 0 1.973-.136 2.42-.406.446-.271.669-.753.67-1.446 0-.74-.215-1.26-.648-1.568-.432-.308-1.23-.46-2.395-.46l-3.102-.002zM62.248 56.102a3.657 3.657 0 0 1 1.65-1.329 6.231 6.231 0 0 1 2.438-.443c1.084 0 1.983.12 2.698.36a3.007 3.007 0 0 1 1.65 1.273c.38.606.571 1.437.572 2.495v5.62c0 .722.18 1.294.542 1.713h-3.026a4.324 4.324 0 0 1-.374-.71 3.132 3.132 0 0 1-.136-.794c-.597.691-1.156 1.164-1.678 1.416-.522.253-1.187.38-1.994.38-.98 0-1.775-.31-2.384-.927-.61-.618-.915-1.424-.916-2.42 0-.972.243-1.745.729-2.32.486-.574 1.23-.962 2.232-1.166a34.348 34.348 0 0 1 3.988-.524c0-.755-.12-1.297-.361-1.625-.242-.33-.758-.494-1.55-.496-.638 0-1.102.132-1.394.397-.292.264-.48.67-.565 1.219h-2.733c-.014-.752.2-1.49.612-2.119zm2.01 6.367a1.129 1.129 0 0 0 .432.92c.32.245.717.368 1.12.35.893 0 1.525-.225 1.895-.677.37-.451.557-1.062.56-1.831v-.678l-2.121.385c-1.257.22-1.886.73-1.886 1.53zM40.835 74.545a.824.824 0 0 1-.049-.194 2.056 2.056 0 0 1-.017-.26h.554c.006.096.027.19.063.279.027.066.074.12.136.156a.47.47 0 0 0 .223.049.425.425 0 0 0 .214-.053.36.36 0 0 0 .142-.15.478.478 0 0 0 .052-.224.36.36 0 0 0-.136-.324 1.031 1.031 0 0 0-.502-.095v-.421a.851.851 0 0 0 .452-.098.354.354 0 0 0 .129-.307.332.332 0 0 0-.097-.253.371.371 0 0 0-.271-.094.355.355 0 0 0-.284.103.63.63 0 0 0-.112.36h-.526c.004-.131.024-.261.059-.387a.73.73 0 0 1 .145-.26.88.88 0 0 1 .731-.309c.167-.004.332.03.484.1.13.061.24.159.315.282.075.13.114.277.11.427a.66.66 0 0 1-.077.32.274.274 0 0 0-.041.533c.034.01.07.013.106.008.07.12.105.258.1.397a.972.972 0 0 1-.123.496.845.845 0 0 1-.354.332c-.161.08-.34.12-.52.118a1.177 1.177 0 0 1-.483-.098.802.802 0 0 1-.427-.428l.004-.005zM43.176 73.735a.828.828 0 0 1 .35-.287.542.542 0 0 1-.375-.559.826.826 0 0 1 .114-.434.746.746 0 0 1 .322-.29 1.205 1.205 0 0 1 .96 0 .729.729 0 0 1 .425.697.636.636 0 0 1-.091.355.693.693 0 0 1-.291.235c.096.039.184.095.261.165a.613.613 0 0 1 .15.229c.035.098.051.202.05.306a.932.932 0 0 1-.125.48.837.837 0 0 1-.352.327c-.163.08-.342.12-.523.115a1.016 1.016 0 0 1-.714-.25.848.848 0 0 1-.271-.654.777.777 0 0 1 .11-.435zm.585.097a.43.43 0 0 0-.109.31.441.441 0 0 0 .11.315.388.388 0 0 0 .298.118.394.394 0 0 0 .41-.419.492.492 0 0 0-.05-.23.367.367 0 0 0-.143-.152.405.405 0 0 0-.217-.054.397.397 0 0 0-.3.112zm.05-1.18a.329.329 0 0 0-.102.251.34.34 0 0 0 .22.332.346.346 0 0 0 .14.023.324.324 0 0 0 .345-.347.354.354 0 0 0-.094-.259.33.33 0 0 0-.25-.096.36.36 0 0 0-.26.096zM45.599 74.415h.603v.598h-.603v-.598zM47.97 74.449a.644.644 0 0 0 .136-.271c.03-.13.052-.263.065-.396-.084.079-.18.144-.283.195a.714.714 0 0 1-.298.058.864.864 0 0 1-.456-.116.788.788 0 0 1-.304-.33 1.103 1.103 0 0 1-.107-.494 1.208 1.208 0 0 1 .07-.417.949.949 0 0 1 .197-.328.857.857 0 0 1 .31-.214c.124-.05.258-.076.392-.074a.91.91 0 0 1 .613.196c.155.137.266.315.321.514.064.223.096.455.094.688 0 .541-.088.948-.263 1.219a.898.898 0 0 1-.802.397 1.005 1.005 0 0 1-.428-.083.649.649 0 0 1-.283-.25 1.133 1.133 0 0 1-.146-.433h.55c.02.08.062.15.12.208a.3.3 0 0 0 .2.062.369.369 0 0 0 .303-.131zm.059-1.037a.533.533 0 0 0 .108-.353.573.573 0 0 0-.11-.373.374.374 0 0 0-.308-.135.364.364 0 0 0-.3.135.575.575 0 0 0-.108.37.524.524 0 0 0 .112.354.382.382 0 0 0 .304.135.375.375 0 0 0 .302-.127v-.006zM49.05 72.138h2.032v.46c-.15.167-.285.345-.406.534a4.033 4.033 0 0 0-.522 1.229 4.4 4.4 0 0 0-.11.652h-.589c.01-.159.028-.317.056-.474a3.44 3.44 0 0 1 .317-.915 4.85 4.85 0 0 1 .292-.511c.104-.157.223-.318.355-.484H49.05v-.491zM51.978 72.781a1.825 1.825 0 0 0-.126.569.938.938 0 0 1 .27-.198.761.761 0 0 1 .312-.06.865.865 0 0 1 .447.116.773.773 0 0 1 .306.329c.075.153.112.321.109.492.003.187-.038.373-.121.541a.878.878 0 0 1-.344.369.999.999 0 0 1-.512.135.88.88 0 0 1-.763-.357c-.17-.239-.257-.585-.257-1.04 0-.542.088-.949.261-1.212a.89.89 0 0 1 .8-.398.849.849 0 0 1 .589.19.96.96 0 0 1 .27.58h-.552a.406.406 0 0 0-.118-.213.312.312 0 0 0-.206-.064.361.361 0 0 0-.365.221zm.016.93a.526.526 0 0 0-.111.358.553.553 0 0 0 .115.371.384.384 0 0 0 .31.136.352.352 0 0 0 .297-.136.592.592 0 0 0 .104-.372.542.542 0 0 0-.106-.355.36.36 0 0 0-.295-.135.4.4 0 0 0-.318.134h.004zM53.7 73.735a.832.832 0 0 1 .349-.287.542.542 0 0 1-.373-.559.84.84 0 0 1 .113-.434.75.75 0 0 1 .323-.29 1.206 1.206 0 0 1 .96 0c.13.06.24.156.314.279a.782.782 0 0 1 .11.418.648.648 0 0 1-.09.355.688.688 0 0 1-.293.235.866.866 0 0 1 .263.165.594.594 0 0 1 .15.229.849.849 0 0 1 .05.306.932.932 0 0 1-.125.48.837.837 0 0 1-.352.327c-.163.08-.342.12-.523.115a1.016 1.016 0 0 1-.714-.25.846.846 0 0 1-.271-.654.767.767 0 0 1 .11-.435zm.586.097a.431.431 0 0 0-.109.31.442.442 0 0 0 .11.315.384.384 0 0 0 .298.118.394.394 0 0 0 .41-.419.492.492 0 0 0-.05-.23.367.367 0 0 0-.136-.152.406.406 0 0 0-.217-.054.397.397 0 0 0-.3.112h-.006zm.049-1.18a.334.334 0 0 0-.1.251.343.343 0 0 0 .36.355.341.341 0 0 0 .249-.094.346.346 0 0 0 .095-.253.356.356 0 0 0-.094-.259.33.33 0 0 0-.25-.096.364.364 0 0 0-.26.096zM55.907 72.138h2.032v.46a3.974 3.974 0 0 0-.717 1.122 4.346 4.346 0 0 0-.32 1.293h-.591a4.39 4.39 0 0 1 .055-.474c.026-.126.058-.25.097-.374.06-.186.133-.367.22-.541a4.85 4.85 0 0 1 .293-.511c.104-.157.224-.318.355-.484h-1.424v-.491zM58.834 72.781c-.07.182-.113.374-.126.569a.95.95 0 0 1 .271-.198.755.755 0 0 1 .31-.06.875.875 0 0 1 .449.116.782.782 0 0 1 .306.329c.074.153.111.322.108.492.003.187-.038.373-.12.541a.886.886 0 0 1-.344.369c-.156.09-.333.137-.514.135a.879.879 0 0 1-.76-.357c-.173-.239-.26-.585-.258-1.04 0-.542.087-.946.26-1.212a.893.893 0 0 1 .799-.398.85.85 0 0 1 .59.19.96.96 0 0 1 .272.58h-.557a.406.406 0 0 0-.117-.213.318.318 0 0 0-.207-.064.363.363 0 0 0-.362.221zm.018.93a.527.527 0 0 0-.112.358.56.56 0 0 0 .115.371.39.39 0 0 0 .311.136.353.353 0 0 0 .297-.136.592.592 0 0 0 .103-.372.542.542 0 0 0-.106-.355.359.359 0 0 0-.294-.135.398.398 0 0 0-.314.134zM42.151 42.443h1.761v.444h-1.26v.522h1.153v.42h-1.152v.624h1.314v.446H42.15v-2.456zM44.247 44.399a1.238 1.238 0 0 1-.045-.271h.484a.471.471 0 0 0 .175.31c.11.068.237.1.365.093a.595.595 0 0 0 .327-.08.235.235 0 0 0 .123-.207c0-.09-.066-.158-.199-.208l-.749-.29a1.137 1.137 0 0 1-.256-.136.541.541 0 0 1-.225-.463.69.69 0 0 1 .43-.651 1.13 1.13 0 0 1 .474-.093c.247-.015.491.057.69.204a.783.783 0 0 1 .265.592h-.492a.47.47 0 0 0-.144-.294.474.474 0 0 0-.311-.091.642.642 0 0 0-.216.035.357.357 0 0 0-.15.1.211.211 0 0 0-.054.144c0 .084.057.148.17.19l.767.29c.143.047.274.125.382.23a.542.542 0 0 1 .123.382.7.7 0 0 1-.078.33.755.755 0 0 1-.23.263.78.78 0 0 1-.185.102.992.992 0 0 1-.206.054c-.087.013-.175.02-.264.019-.409 0-.7-.12-.875-.358a.666.666 0 0 1-.096-.196zM46.368 42.443h1.964v.444h-.726V44.9h-.505v-2.012h-.733v-.444zM49.822 44.9a.925.925 0 0 1 .15-.542c.123-.169.27-.319.437-.444.147-.111.286-.233.415-.365a.493.493 0 0 0 .127-.349.377.377 0 0 0-.08-.259.28.28 0 0 0-.22-.092.291.291 0 0 0-.257.111.667.667 0 0 0-.088.366h-.455a1.653 1.653 0 0 1 .022-.294.774.774 0 0 1 .067-.211.62.62 0 0 1 .125-.167.79.79 0 0 1 .576-.215.894.894 0 0 1 .424.096.683.683 0 0 1 .279.27.812.812 0 0 1 .099.407.777.777 0 0 1-.1.406 1.177 1.177 0 0 1-.297.32l-.362.271a1.37 1.37 0 0 0-.271.26h1.019v.417l-1.61.014zM52.145 44.842a.685.685 0 0 1-.25-.283c-.06-.124-.1-.257-.12-.393a3.017 3.017 0 0 1-.032-.453c0-.434.068-.754.205-.961a.822.822 0 0 1 1.142-.136c.122.116.209.265.249.43.046.19.069.385.066.58.001.16-.008.32-.027.477a1.47 1.47 0 0 1-.116.415.756.756 0 0 1-.26.314.745.745 0 0 1-.437.12.77.77 0 0 1-.42-.11zm.082-1.129c-.01.212.014.423.069.627a.287.287 0 0 0 .284.196.27.27 0 0 0 .159-.045.313.313 0 0 0 .1-.136c.03-.084.049-.172.057-.261.014-.133.02-.266.019-.4a3.36 3.36 0 0 0-.03-.497.497.497 0 0 0-.103-.259.253.253 0 0 0-.198-.078.26.26 0 0 0-.253.135c-.07.118-.104.36-.104.718zM53.637 44.9a.935.935 0 0 1 .149-.542c.123-.169.27-.319.437-.444.147-.112.285-.234.415-.364a.493.493 0 0 0 .127-.35.378.378 0 0 0-.081-.259.279.279 0 0 0-.22-.092.291.291 0 0 0-.257.111.677.677 0 0 0-.087.366h-.455a1.82 1.82 0 0 1 .02-.294.826.826 0 0 1 .068-.211.686.686 0 0 1 .125-.167.79.79 0 0 1 .576-.215.899.899 0 0 1 .425.096.693.693 0 0 1 .28.27.83.83 0 0 1 .098.407.765.765 0 0 1-.102.407 1.176 1.176 0 0 1-.296.32l-.362.27a1.448 1.448 0 0 0-.27.26h1.02v.417l-1.61.014zM55.541 44.9a.926.926 0 0 1 .15-.542c.123-.169.27-.319.437-.444.146-.112.285-.234.414-.365a.493.493 0 0 0 .128-.349.384.384 0 0 0-.08-.259.283.283 0 0 0-.222-.092.295.295 0 0 0-.256.111.677.677 0 0 0-.087.366h-.455a1.653 1.653 0 0 1 .022-.294.728.728 0 0 1 .067-.211.622.622 0 0 1 .125-.167.785.785 0 0 1 .574-.215.9.9 0 0 1 .426.096.683.683 0 0 1 .279.27.812.812 0 0 1 .098.407.777.777 0 0 1-.1.406c-.079.124-.18.233-.298.32l-.361.271a1.448 1.448 0 0 0-.271.26h1.02v.417l-1.61.014zM70.906 44.852h.76v.323h-.76v-.322zM72.165 45.711a.557.557 0 0 1-.2-.226 1.1 1.1 0 0 1-.096-.316 2.363 2.363 0 0 1-.027-.36 1.433 1.433 0 0 1 .164-.77.659.659 0 0 1 .915-.113.697.697 0 0 1 .199.344c.038.152.056.308.054.465 0 .128-.007.256-.023.383a1.193 1.193 0 0 1-.092.332.615.615 0 0 1-.207.25.6.6 0 0 1-.35.097.612.612 0 0 1-.337-.086zm.065-.902c-.007.17.011.338.055.501a.235.235 0 0 0 .087.115.25.25 0 0 0 .263.006.256.256 0 0 0 .08-.114.92.92 0 0 0 .046-.21c.01-.106.015-.213.015-.32a2.51 2.51 0 0 0-.025-.396.406.406 0 0 0-.081-.209.24.24 0 0 0-.362.046 1.354 1.354 0 0 0-.078.581zM74.194 45.385a.44.44 0 0 0 .095-.183c.02-.087.034-.175.043-.264a.786.786 0 0 1-.188.135.574.574 0 0 1-.504-.04.519.519 0 0 1-.202-.218.732.732 0 0 1-.072-.33c0-.092.016-.183.046-.27a.643.643 0 0 1 .136-.22.563.563 0 0 1 .206-.135.687.687 0 0 1 .261-.05.604.604 0 0 1 .406.135.71.71 0 0 1 .216.343 1.6 1.6 0 0 1 .062.458c0 .36-.059.632-.176.812a.598.598 0 0 1-.534.271.676.676 0 0 1-.285-.055.438.438 0 0 1-.189-.167.753.753 0 0 1-.097-.288h.365a.316.316 0 0 0 .082.135c.038.03.086.045.135.042a.247.247 0 0 0 .194-.111zm.038-.691a.35.35 0 0 0 .073-.236.38.38 0 0 0-.073-.247.25.25 0 0 0-.206-.091.243.243 0 0 0-.2.09.387.387 0 0 0-.072.246.356.356 0 0 0 .074.235.253.253 0 0 0 .203.087.246.246 0 0 0 .2-.084zM75.213 45.711a.557.557 0 0 1-.201-.226c-.047-.1-.08-.206-.095-.316a2.363 2.363 0 0 1-.027-.36 1.435 1.435 0 0 1 .164-.77.659.659 0 0 1 .914-.113.696.696 0 0 1 .2.344c.037.152.056.308.054.465 0 .128-.008.256-.023.383a1.193 1.193 0 0 1-.093.332.615.615 0 0 1-.207.25.6.6 0 0 1-.35.097.612.612 0 0 1-.337-.086zm.065-.902c-.008.17.011.338.055.501a.234.234 0 0 0 .087.115.249.249 0 0 0 .263.006.256.256 0 0 0 .08-.114.925.925 0 0 0 .045-.21c.014-.107.02-.215.022-.324a2.51 2.51 0 0 0-.024-.397.406.406 0 0 0-.081-.208.24.24 0 0 0-.362.046c-.071.186-.1.386-.085.585zM70.326 48.399v-.271h.517v-.5h.27v.498h.518v.272h-.516v.507h-.271v-.508l-.517.002zM71.834 49.214a.75.75 0 0 1 .12-.432c.098-.135.215-.254.349-.355a3.08 3.08 0 0 0 .332-.291.397.397 0 0 0 .103-.28.306.306 0 0 0-.065-.208.223.223 0 0 0-.178-.073.234.234 0 0 0-.204.09.542.542 0 0 0-.07.292h-.365a1.31 1.31 0 0 1 .018-.236.584.584 0 0 1 .054-.167.47.47 0 0 1 .1-.136.63.63 0 0 1 .46-.172.715.715 0 0 1 .34.077.542.542 0 0 1 .224.217c.054.101.08.215.078.33a.61.61 0 0 1-.08.322.951.951 0 0 1-.238.256l-.29.222c-.08.06-.152.13-.214.208h.813v.335l-1.287.001zM73.358 49.214a.75.75 0 0 1 .12-.432c.098-.135.215-.254.349-.355.117-.089.228-.186.332-.291a.397.397 0 0 0 .103-.28.306.306 0 0 0-.065-.208.223.223 0 0 0-.178-.073.235.235 0 0 0-.204.09.542.542 0 0 0-.07.292h-.365a1.302 1.302 0 0 1 .017-.236.581.581 0 0 1 .055-.167.467.467 0 0 1 .1-.136.63.63 0 0 1 .46-.172.716.716 0 0 1 .34.077.542.542 0 0 1 .224.217c.053.101.08.215.078.33a.61.61 0 0 1-.08.322.95.95 0 0 1-.238.256l-.29.222c-.08.06-.152.13-.214.208h.813v.335l-1.287.001zM75.213 49.167a.55.55 0 0 1-.201-.226c-.047-.1-.08-.206-.095-.315a2.393 2.393 0 0 1-.027-.361 1.434 1.434 0 0 1 .164-.771.661.661 0 0 1 .914-.112.696.696 0 0 1 .2.344c.037.151.056.308.054.464 0 .128-.008.256-.023.384a1.193 1.193 0 0 1-.093.331.605.605 0 0 1-.207.251.6.6 0 0 1-.35.096.612.612 0 0 1-.337-.085zm.065-.902c-.008.169.011.338.055.5a.227.227 0 0 0 .222.157c.045.001.09-.011.127-.035a.248.248 0 0 0 .08-.114.926.926 0 0 0 .046-.21c.011-.107.016-.213.015-.32a2.508 2.508 0 0 0-.024-.397.406.406 0 0 0-.081-.208.213.213 0 0 0-.159-.063.207.207 0 0 0-.203.109 1.356 1.356 0 0 0-.078.58zM80.505 54.622h2.98v1.736a4.365 4.365 0 0 1 1.277-1.49 2.647 2.647 0 0 1 1.557-.542h.395c.086 0 .179.01.28.018v3.037c-.116 0-.284-.008-.5-.023a8.412 8.412 0 0 0-.456-.024c-.846 0-1.483.237-1.912.712-.43.475-.643 1.17-.641 2.086v5.655h-2.98V54.622zM49.076 15.848c.707.306 1.311.81 1.738 1.453.449.697.72 1.494.787 2.32H48.64c-.155-.692-.381-1.183-.677-1.475-.297-.292-.73-.438-1.3-.438a2.007 2.007 0 0 0-1.762.927c-.415.617-.623 1.494-.623 2.63 0 2.338.789 3.508 2.367 3.509.541 0 .97-.163 1.288-.49.317-.325.556-.862.718-1.608h2.96c-.225 1.444-.773 2.546-1.644 3.305-.87.758-2.024 1.137-3.462 1.136-1.096 0-2.037-.23-2.822-.688a4.426 4.426 0 0 1-1.796-2c-.411-.873-.617-1.929-.617-3.165 0-1.197.208-2.244.624-3.141.373-.854 1-1.572 1.796-2.056.789-.472 1.723-.707 2.804-.706a6.327 6.327 0 0 1 2.582.487zM55.063 17.137a3.657 3.657 0 0 1 1.65-1.33 6.231 6.231 0 0 1 2.438-.442c1.084 0 1.983.12 2.699.362a3.004 3.004 0 0 1 1.654 1.27c.38.607.57 1.439.571 2.495v5.62c0 .723.18 1.294.542 1.714h-3.03a4.327 4.327 0 0 1-.374-.711 3.114 3.114 0 0 1-.135-.793c-.597.691-1.157 1.163-1.679 1.416-.522.253-1.186.38-1.994.38-.98 0-1.774-.31-2.384-.927-.61-.618-.915-1.424-.915-2.42 0-.97.242-1.744.728-2.32.486-.576 1.23-.965 2.233-1.166a34.357 34.357 0 0 1 3.998-.524c0-.755-.12-1.296-.361-1.626-.241-.33-.758-.495-1.55-.496-.638 0-1.103.133-1.394.397-.29.265-.479.671-.565 1.22h-2.744c-.013-.752.2-1.49.612-2.12zm2.01 6.366a1.13 1.13 0 0 0 .433.921c.32.244.716.368 1.118.35.895 0 1.527-.226 1.897-.678.37-.451.557-1.061.56-1.83v-.678l-2.122.384c-1.257.217-1.886.727-1.886 1.531zM70.26 26.71a5.011 5.011 0 0 1-1.83-1.195 5.18 5.18 0 0 1-1.154-1.863 7.072 7.072 0 0 1-.386-2.438c0-1.19.233-2.225.7-3.107a4.862 4.862 0 0 1 1.994-2.032c.862-.474 1.876-.711 3.043-.711a6.71 6.71 0 0 1 2.401.406c.68.25 1.298.646 1.807 1.16.51.533.898 1.17 1.138 1.866.278.792.415 1.626.406 2.465.009.823-.129 1.64-.406 2.414a5.24 5.24 0 0 1-1.154 1.874c-.508.52-1.125.92-1.807 1.171a6.71 6.71 0 0 1-2.39.407 6.553 6.553 0 0 1-2.362-.418zm.367-8.045c-.49.636-.734 1.487-.734 2.553-.013.643.1 1.283.332 1.883.19.499.523.93.956 1.242.424.29.927.44 1.44.43a2.375 2.375 0 0 0 1.982-.947c.49-.633.736-1.486.736-2.56 0-1.105-.243-1.974-.73-2.607a2.559 2.559 0 0 0-3.982 0v.006z" fill="#fff"/></g><defs><linearGradient id="b" x1="35.608" y1="35.022" x2="1.678" y2="2.311" gradientUnits="userSpaceOnUse"><stop stop-color="#006548"/><stop offset="1" stop-color="#004E4B"/></linearGradient><linearGradient id="c" x1="44.097" y1="43.509" x2="73.151" y2="73.782" gradientUnits="userSpaceOnUse"><stop stop-color="#006548"/><stop offset="1" stop-color="#004E4B"/></linearGradient><clipPath id="a"><path fill="#fff" d="M0 0h87v77.933H0z"/></clipPath></defs></svg>