<svg width="55" height="65" fill="none" xmlns="http://www.w3.org/2000/svg"><path d="M47.371 51.075a13.008 13.008 0 0 1-7.454 2.334h-1.976M40.178 28.718h4.653A8.177 8.177 0 0 1 53 36.887v3.44a13.02 13.02 0 0 1-2.56 7.767" stroke="#FAB319" stroke-width="2.5" stroke-linecap="round" stroke-linejoin="round"/><path d="M38.727 49.355h1.19a9.039 9.039 0 0 0 9.03-9.028v-3.44a4.119 4.119 0 0 0-4.116-4.115h-4.66M3.52 23.24a2.457 2.457 0 0 1 .432-2.892l1.737-1.737a2.457 2.457 0 0 1 3.475 0l1.335 1.335M31.163 20.41l.06-.063 1.737-1.736a2.458 2.458 0 0 1 3.475 0l1.737 1.736a2.457 2.457 0 0 1 .428 2.897M17.293 20.211c.086-.127.185-.246.294-.355l1.737-1.737a2.457 2.457 0 0 1 3.475 0l1.737 1.737c.195.194.355.42.475.666" stroke="#FAB319" stroke-width="2.5" stroke-linecap="round" stroke-linejoin="round"/><path d="m10.536 23.24-.36-.983a2.457 2.457 0 0 1 1.474-3.149l2.309-.84a2.457 2.457 0 0 1 3.15 1.474l.84 2.31c.14.382.181.794.122 1.197M23.919 23.24a2.447 2.447 0 0 1 .532-2.03l1.574-1.882a2.456 2.456 0 0 1 3.462-.303l1.887 1.585a2.456 2.456 0 0 1 .758 2.64M2 34.232V24.48a1.228 1.228 0 0 1 1.228-1.229h35.669a1.228 1.228 0 0 1 1.228 1.229v9.198c0 5.78-.57 11.547-1.7 17.215l-.878 4.402a4.3 4.3 0 0 1-4.216 3.458H18.36M14.06 58.753H8.794a4.3 4.3 0 0 1-4.217-3.458l-.877-4.401a87.943 87.943 0 0 1-1.565-12.332M33.284 58.814v3.096a1.14 1.14 0 0 1-1.142 1.142H9.982A1.144 1.144 0 0 1 8.84 61.91v-3.096" stroke="#FAB319" stroke-width="2.5" stroke-linecap="round" stroke-linejoin="round"/><path d="M30.274 33.253V30.07A3.071 3.071 0 0 1 33.345 27a3.071 3.071 0 0 0 3.071-3.072v-.675H5.706v.675a3.07 3.07 0 0 0 3.071 3.071 3.071 3.071 0 0 1 3.071 3.071v3.255a3.071 3.071 0 0 0 6.142 0v-.43a3.07 3.07 0 1 1 6.142 0v7.8a3.071 3.071 0 0 0 6.142 0v-3.141M21.061 13.67v-.307a2.764 2.764 0 0 0-2.764-2.764H10.19a2.764 2.764 0 0 1 0-5.528h14.25a2.764 2.764 0 0 0 2.763-2.764V2" stroke="#FAB319" stroke-width="2.5" stroke-linecap="round" stroke-linejoin="round"/></svg>