<svg width="49" height="49" viewBox="0 0 49 49" fill="none" xmlns="http://www.w3.org/2000/svg">
<path d="M31.1091 14.3938C31.1091 13.9427 30.7434 13.5771 30.2924 13.5771H7.45208C7.00179 13.5771 6.63541 13.2107 6.63541 12.7604V7.04375C6.63541 6.59346 7.00179 6.22708 7.45208 6.22708H31.1354C31.5857 6.22708 31.9521 6.59346 31.9521 7.04375V11.0612C31.9521 11.5122 32.3177 11.8779 32.7687 11.8779C33.2197 11.8779 33.5854 11.5122 33.5854 11.0612V7.04375C33.5854 5.69288 32.4863 4.59375 31.1354 4.59375H7.45208C6.10121 4.59375 5.00208 5.69288 5.00208 7.04375V12.7604C5.00208 14.1113 6.10121 15.2104 7.45208 15.2104H30.2924C30.7434 15.2104 31.1091 14.8448 31.1091 14.3938Z" fill="#FAB319"/>
<path d="M12.8625 20.2241C12.8625 19.0354 11.8955 18.0684 10.7068 18.0684H7.15777C5.96911 18.0684 5.00208 19.0354 5.00208 20.2241V22.7522C5.00208 23.9409 5.96911 24.9079 7.15777 24.9079H10.7068C11.8955 24.9079 12.8625 23.9409 12.8625 22.7522V20.2241ZM11.2292 22.7522C11.2292 23.0403 10.9949 23.2746 10.7068 23.2746H7.15777C6.86969 23.2746 6.63541 23.0403 6.63541 22.7522V20.2241C6.63541 19.936 6.86969 19.7017 7.15777 19.7017H10.7068C10.9949 19.7017 11.2292 19.936 11.2292 20.2241V22.7522Z" fill="#FAB319"/>
<path d="M23.1729 20.2241C23.1729 19.0354 22.2059 18.0684 21.0172 18.0684H17.4682C16.2795 18.0684 15.3125 19.0354 15.3125 20.2241V22.7522C15.3125 23.9409 16.2795 24.9079 17.4682 24.9079H21.0172C22.2059 24.9079 23.1729 23.9409 23.1729 22.7522V20.2241ZM21.5396 22.7522C21.5396 23.0403 21.3053 23.2746 21.0172 23.2746H17.4682C17.1801 23.2746 16.9458 23.0403 16.9458 22.7522V20.2241C16.9458 19.936 17.1801 19.7017 17.4682 19.7017H21.0172C21.3053 19.7017 21.5396 19.936 21.5396 20.2241V22.7522Z" fill="#FAB319"/>
<path d="M31.4297 18.0684H27.8807C26.692 18.0684 25.725 19.0354 25.725 20.2241V22.7522C25.725 23.9409 26.692 24.9079 27.8807 24.9079H31.4297C32.6185 24.9079 33.5854 23.9409 33.5854 22.7522V20.2241C33.5854 19.0354 32.6184 18.0684 31.4297 18.0684ZM31.9521 22.7522C31.9521 23.0403 31.7177 23.2746 31.4297 23.2746H27.8807C27.5927 23.2746 27.3583 23.0403 27.3583 22.7522V20.2241C27.3583 19.936 27.5927 19.7017 27.8807 19.7017H31.4297C31.7177 19.7017 31.9521 19.936 31.9521 20.2241V22.7522Z" fill="#FAB319"/>
<path d="M12.8625 30.0248C12.8625 28.8362 11.8955 27.8691 10.7068 27.8691H7.15777C5.96911 27.8691 5.00208 28.8362 5.00208 30.0248V32.553C5.00208 33.7417 5.96911 34.7087 7.15777 34.7087H10.7068C11.8955 34.7087 12.8625 33.7417 12.8625 32.553V30.0248ZM11.2292 32.553C11.2292 32.8411 10.9949 33.0754 10.7068 33.0754H7.15777C6.86969 33.0754 6.63541 32.8411 6.63541 32.553V30.0248C6.63541 29.7368 6.86969 29.5025 7.15777 29.5025H10.7068C10.9949 29.5025 11.2292 29.7368 11.2292 30.0248V32.553Z" fill="#FAB319"/>
<path d="M23.1729 30.0248C23.1729 28.8362 22.2059 27.8691 21.0172 27.8691H17.4682C16.2795 27.8691 15.3125 28.8362 15.3125 30.0248V32.553C15.3125 33.7417 16.2795 34.7087 17.4682 34.7087H21.0172C22.2059 34.7087 23.1729 33.7417 23.1729 32.553V30.0248ZM21.5396 32.553C21.5396 32.8411 21.3053 33.0754 21.0172 33.0754H17.4682C17.1801 33.0754 16.9458 32.8411 16.9458 32.553V30.0248C16.9458 29.7368 17.1801 29.5025 17.4682 29.5025H21.0172C21.3053 29.5025 21.5396 29.7368 21.5396 30.0248V32.553Z" fill="#FAB319"/>
<path d="M10.7069 37.6689H7.15789C5.96923 37.6689 5.0022 38.636 5.0022 39.8246V42.3528C5.0022 43.5415 5.96923 44.5085 7.15789 44.5085H10.7069C11.8956 44.5085 12.8626 43.5415 12.8626 42.3528V39.8246C12.8626 38.636 11.8956 37.6689 10.7069 37.6689ZM11.2293 42.3528C11.2293 42.6409 10.995 42.8752 10.7069 42.8752H7.15789C6.86981 42.8752 6.63553 42.6409 6.63553 42.3528V39.8246C6.63553 39.5366 6.86981 39.3023 7.15789 39.3023H10.7069C10.995 39.3023 11.2293 39.5366 11.2293 39.8246V42.3528Z" fill="#FAB319"/>
<path d="M21.0172 37.6689H17.4682C16.2795 37.6689 15.3125 38.636 15.3125 39.8246V42.3528C15.3125 43.5415 16.2795 44.5085 17.4682 44.5085H21.0172C22.2059 44.5085 23.1729 43.5415 23.1729 42.3528V39.8246C23.1729 38.636 22.2059 37.6689 21.0172 37.6689ZM21.5396 42.3528C21.5396 42.6409 21.3053 42.8752 21.0172 42.8752H17.4682C17.1801 42.8752 16.9458 42.6409 16.9458 42.3528V39.8246C16.9458 39.5366 17.1801 39.3023 17.4682 39.3023H21.0172C21.3053 39.3023 21.5396 39.5366 21.5396 39.8246V42.3528Z" fill="#FAB319"/>
<path d="M38.1792 30.9309C38.1792 30.4799 37.8135 30.1143 37.3625 30.1143C36.9115 30.1143 36.5459 30.4799 36.5459 30.9309V31.9574C34.8089 32.2663 33.5032 33.5386 33.5032 35.0575C33.5032 37.4565 35.6391 37.8939 37.1987 38.2132C39.0211 38.5865 39.5885 38.8496 39.5885 39.7688C39.5885 40.603 38.5692 41.3078 37.3624 41.3078C36.5382 41.3078 35.7816 40.9855 35.3877 40.4668C35.115 40.1076 34.6026 40.0375 34.2435 40.3101C33.8842 40.5829 33.8141 41.0952 34.0868 41.4544C34.647 42.1924 35.533 42.6932 36.5458 42.8697V43.8955C36.5458 44.3465 36.9114 44.7122 37.3624 44.7122C37.8134 44.7122 38.1791 44.3465 38.1791 43.8955V42.8691C39.916 42.5602 41.2218 41.2878 41.2218 39.7689C41.2218 37.3699 39.0859 36.9325 37.5263 36.6132C35.7039 36.24 35.1365 35.9768 35.1365 35.0576C35.1365 34.2234 36.1558 33.5186 37.3625 33.5186C38.1868 33.5186 38.9434 33.8409 39.3372 34.3596C39.6101 34.7188 40.1225 34.789 40.4815 34.5163C40.8408 34.2435 40.9109 33.7313 40.6382 33.372C40.078 32.6341 39.192 32.1333 38.1792 31.9568V30.9309Z" fill="#FAB319"/>
<path d="M42.5903 26.9627C42.1877 26.7599 41.6964 26.9218 41.4935 27.3247C41.2907 27.7276 41.4529 28.2186 41.8556 28.4214C45.2549 30.1334 47.3667 33.5594 47.3667 37.3625C47.3667 42.8789 42.8788 47.3667 37.3625 47.3667C31.8462 47.3667 27.3583 42.8789 27.3583 37.3625C27.3583 31.8461 31.8462 27.3583 37.3625 27.3583C37.709 27.3583 37.9212 27.4094 38.1865 27.2518C38.4285 27.1085 38.5771 26.8521 38.5869 26.5795C38.5878 26.5543 38.5875 4.13509 38.5875 4.08333C38.5875 1.83178 36.7557 0 34.5042 0H4.08333C1.83178 0 0 1.83178 0 4.08333V44.9167C0 47.1682 1.83178 49 4.08333 49H27.1049C27.5559 49 27.9215 48.6343 27.9215 48.1833C27.9215 47.7323 27.5559 47.3667 27.1049 47.3667H4.08333C2.73246 47.3667 1.63333 46.2675 1.63333 44.9167V4.08333C1.63333 2.73246 2.73246 1.63333 4.08333 1.63333H34.5042C35.855 1.63333 36.9542 2.73246 36.9542 4.08333V25.733C30.7257 25.9489 25.725 31.0822 25.725 37.3625C25.725 43.7795 30.9456 49 37.3625 49C43.7794 49 49 43.7795 49 37.3625C49 32.9387 46.5439 28.9537 42.5903 26.9627Z" fill="#FAB319"/>
<path d="M28.5833 12.2495C29.0343 12.2495 29.4 11.8839 29.4 11.4329V8.37038C29.4 7.91937 29.0343 7.55371 28.5833 7.55371H27.7666C27.3156 7.55371 26.95 7.91937 26.95 8.37038C26.95 8.82138 27.3156 9.18704 27.7666 9.18704V11.4329C27.7666 11.8839 28.1323 12.2495 28.5833 12.2495Z" fill="#FAB319"/>
</svg>
