<svg width="69" height="22" viewBox="0 0 69 22" fill="none" xmlns="http://www.w3.org/2000/svg">
<path d="M65.8724 8.09198H68.9924C68.5978 5.05747 66.38 3.46244 63.2975 3.46244C60.1776 3.46244 58.0913 5.11586 58.0913 7.95582C58.0913 11.1848 60.779 11.9045 62.2074 12.1963C64.0493 12.5659 65.8536 12.6048 65.8536 14.2387C65.8536 15.3475 64.9515 15.8921 63.6734 15.8921C62.0947 15.8921 61.0422 15.0752 60.779 13.5969H57.6967C57.8846 16.787 60.1212 18.4987 63.4104 18.4987C66.4551 18.4987 68.9547 17.0593 68.9547 13.947C68.9547 10.6012 66.0792 9.99827 64.0681 9.68701C62.696 9.47308 61.1925 9.27853 61.1925 7.78073C61.1925 6.73035 61.9631 6.08847 63.2599 6.08847C64.7636 6.08847 65.6656 6.96384 65.8724 8.09198Z" fill="#FAB319"/>
<path d="M55.9863 3.94878H53.0355V18.0513H55.9863V3.94878Z" fill="#FAB319"/>
<path d="M44.1267 13.13H47.9797C47.3782 14.6473 46.0249 15.3669 44.465 15.3669C41.721 15.3669 40.4429 13.1689 40.4429 10.9903C40.4429 8.79221 41.6458 6.5553 44.4462 6.5553C46.1566 6.5553 47.4345 7.37227 47.9233 8.83114L51.0996 8.83116C50.5546 5.54386 47.7729 3.65704 44.4839 3.65704C40.4241 3.65704 37.3793 6.51637 37.3793 11.0292C37.3793 15.6004 40.6872 18.3042 44.465 18.3042C48.1864 18.3042 51.0996 15.7949 51.0996 11.8657V10.718H44.1267V13.13Z" fill="#FAB319"/>
<path d="M30.632 3.65702C27.2489 3.65702 24.7492 5.85502 24.768 9.51195H27.8128C27.7752 7.91692 28.7525 6.45805 30.4816 6.45805C31.9853 6.45805 32.8686 7.54736 32.8686 8.79221C32.8686 10.0371 31.9852 10.7374 30.3501 11.4961C28.1134 12.527 26.5159 13.1884 24.8807 13.7719V18.0513H36.2705V15.1724H28.4513C28.4513 15.1724 28.4773 15.164 28.4902 15.16C29.8201 14.7429 30.8192 14.2898 32.0041 13.7525C34.5413 12.5854 35.9885 11.1264 35.9885 8.63666C35.9886 5.58268 33.8084 3.65702 30.632 3.65702Z" fill="#FAB319"/>
<path d="M16.7613 13.0911C12.9272 13.1106 12.3069 15.5031 12.1002 17.5261L12.0063 18.4209H11.2356L11.1417 17.5261C10.935 15.5031 10.2959 13.1106 6.5933 13.0911C5.97308 11.7683 5.70995 10.6985 5.70995 9.49249C5.70995 6.47753 8.09692 3.65694 11.6303 3.65694C15.1637 3.65694 17.5131 6.45797 17.5131 9.51204C17.5131 10.6985 17.4004 11.7683 16.7613 13.0911ZM11.5928 0C5.76639 0 0.992432 4.9408 0.992432 10.9902C0.992432 17.0592 5.76639 22 11.5928 22C17.4755 22 22.2307 17.0592 22.2307 10.9902C22.2307 4.94081 17.4755 0 11.5928 0Z" fill="#FAB319"/>
</svg>
