<svg width="97" height="23" viewBox="0 0 97 23" fill="none" xmlns="http://www.w3.org/2000/svg">
<path fill-rule="evenodd" clip-rule="evenodd" d="M79.8824 8.36863C79.8824 3.74663 83.7141 0 88.4412 0C93.1682 0 97 3.74663 97 8.36863C97 10.6788 96.0427 12.7705 94.4944 14.2848C94.0903 14.6802 93.5431 15.1217 92.9513 15.5993C91.2753 16.9517 89.2412 18.5931 89.0831 20.2939C89.051 20.639 88.7955 20.9216 88.4412 20.9216C88.0868 20.9216 87.8313 20.639 87.7993 20.2939C87.6411 18.5931 85.607 16.9517 83.9311 15.5993C83.3393 15.1217 82.7921 14.6802 82.388 14.2848C80.8397 12.7705 79.8824 10.6788 79.8824 8.36863ZM91.2941 8.55883C91.2941 10.1345 90.0168 11.4118 88.4412 11.4118C86.8655 11.4118 85.5882 10.1345 85.5882 8.55883C85.5882 6.98319 86.8655 5.70589 88.4412 5.70589C90.0168 5.70589 91.2941 6.98319 91.2941 8.55883Z" fill="#FAB319"/>
<path d="M69.5822 20.1285C71.014 20.1285 72.0282 19.8728 72.7839 19.322V16.8236C72.0083 17.3548 71.0737 17.6892 69.7612 17.6892C67.5538 17.6892 66.639 15.9974 66.639 13.322C66.639 10.5089 67.7526 9.0729 69.7811 9.0729C70.9742 9.0729 72.1475 9.48601 72.764 9.87945V7.28276C72.1077 6.92866 70.9742 6.67293 69.4231 6.67293C65.4657 6.67293 63.4174 9.48601 63.4174 13.4204C63.4373 17.7285 65.4458 20.1285 69.5822 20.1285ZM50.2328 18.9875V16.4892C49.2783 17.1384 47.6476 17.7089 46.1561 17.7089C43.8891 17.7089 43.034 16.6466 42.8948 14.4827H50.372V12.8696C50.372 8.36471 48.3635 6.67293 45.2811 6.67293C41.5027 6.67293 39.713 9.52535 39.713 13.4401C39.713 17.9449 41.9601 20.1285 45.8976 20.1285C47.8663 20.1285 49.3181 19.5974 50.2328 18.9875ZM21.8551 6.90899V12.0237H17.7187V6.90899H14.6165V19.8728H17.7187V14.463H21.8551V19.8728H24.9573V6.90899H21.8551ZM38.9374 17.4335H37.5652V6.90899H28.5369V8.01062C28.5369 11.1778 28.338 15.2695 27.2443 17.4335H26.2499V22.8236H29.1136V19.8728H36.0539V22.8236H38.9175V17.4335H38.9374ZM60.1163 19.8728H63.6362L58.6646 12.8892L63.0396 6.90899H59.9174L55.5425 12.8892V6.90899H52.4402V19.8728H55.5425V13.4991L60.1163 19.8728ZM45.2016 9.0729C46.7328 9.0729 47.2101 10.3319 47.2101 11.9647V12.2204H42.8948C42.9743 10.1549 43.73 9.0729 45.2016 9.0729ZM34.463 17.4335H30.088C30.9431 15.4859 31.1817 11.945 31.1817 9.7024V9.30896H34.463V17.4335Z" fill="#FAB319"/>
<path d="M12.0312 19.8727H8.86929V4.39096H7.45736C4.87214 4.39096 3.51988 5.66964 3.51988 7.57781C3.51988 9.74172 4.45453 10.745 6.3835 12.0237L7.97441 13.0859L3.40056 19.8727H0L4.11646 13.8138C1.74999 12.1417 0.417612 10.5089 0.417612 7.75486C0.417612 4.31228 2.84374 1.97132 7.43748 1.97132H12.0113V19.8727H12.0312Z" fill="#FAB319"/>
</svg>
