<svg width="40" height="36" viewBox="0 0 40 36" fill="none" xmlns="http://www.w3.org/2000/svg">
<path d="M39.999 26.375C39.9832 23.7831 39.9803 21.1911 39.9068 18.6006C39.8971 17.4819 39.7736 16.3668 39.5382 15.2715C39.1221 13.5171 38.143 12.0762 36.2769 11.5007C34.2322 10.8708 32.3891 11.463 30.7462 12.6921C30.6561 12.7632 30.5986 12.8659 30.5864 12.9778C30.5749 14.1999 30.5792 15.4206 30.5792 16.6316C31.1868 16.5131 31.7311 16.3612 32.2711 16.3152C33.004 16.2525 33.6951 16.4002 34.1185 17.0705C34.5524 17.7242 34.7934 18.4803 34.8154 19.2569C34.8384 22.24 34.8384 25.224 34.8154 28.2089C34.8053 29.5202 34.0853 30.4009 32.824 30.8231C32.7627 30.8477 32.7081 30.8856 32.6644 30.934C32.6207 30.9823 32.5891 31.0397 32.572 31.1018C32.572 32.572 32.5792 34.0421 32.5893 35.5123C32.5893 35.7603 32.6944 35.8662 32.9737 35.869C35.662 35.9011 38.3575 34.0993 39.2906 31.623C39.9313 29.9257 40.0105 28.1531 39.999 26.375ZM34.5879 5.25076C35.9025 5.1114 37.2171 4.96509 38.5332 4.8327C38.7463 4.8118 38.8615 4.76024 38.86 4.52474C38.8528 3.04204 38.86 1.55795 38.86 0C36.7132 0.236897 34.6527 0.461253 32.595 0.696756C30.2351 0.964311 27.9226 1.25416 25.5611 1.49385C25.4834 2.43586 25.4071 3.42107 25.3466 4.3826C25.3092 4.98599 25.2832 5.58938 25.2487 6.229C26.5648 6.08965 27.8203 5.96702 29.0745 5.83603C30.9137 5.64094 32.7515 5.44585 34.5879 5.25076ZM29.3524 20.44C29.4138 17.8936 29.4791 15.3477 29.5482 12.8022C29.5885 11.3488 29.6476 9.89394 29.6922 8.44051C29.7052 8.00991 29.6922 7.58071 29.6922 7.1306C29.4791 7.1306 29.3294 7.1306 29.1796 7.1306C28.0075 7.18774 26.8355 7.26996 25.6634 7.29504C25.2472 7.3034 25.1551 7.46226 25.1479 7.80924C25.1321 8.60912 25.0917 9.409 25.0615 10.2089C24.9425 13.3675 24.823 16.5219 24.703 19.6722C24.6871 20.0903 24.703 20.5083 24.703 21.0072L29.05 20.8678C29.3553 20.8609 29.3466 20.6588 29.3524 20.4428V20.44ZM31.1796 30.752C30.0536 30.6322 29.4762 29.5815 29.4359 28.5614C29.3884 27.3254 29.3596 26.0879 29.3423 24.8505C29.3423 24.5356 29.2502 24.4129 28.9103 24.4241C27.6624 24.465 26.4116 24.4887 25.158 24.4952C24.8225 24.4952 24.7591 24.6345 24.7678 24.9132C24.7908 25.6992 24.7764 26.4865 24.8038 27.2724C24.8455 28.4792 24.8038 29.7013 24.9953 30.8858C25.2472 32.4033 26.0032 33.7439 27.3452 34.6302C28.5245 35.4133 29.9168 35.7227 31.4316 35.9025C31.4316 34.2302 31.4316 32.6138 31.4215 31.0001C31.4053 30.9437 31.3746 30.8921 31.3323 30.8502C31.29 30.8084 31.2375 30.7774 31.1796 30.7604V30.752ZM7.29028 27.9413C7.29892 27.4508 7.10597 27.3031 6.60057 27.2822C4.78918 27.2055 4.2521 26.6551 4.21754 24.8881C4.19162 23.5476 4.21754 22.207 4.1945 20.8651C4.18586 20.2951 4.11675 19.7252 4.07355 19.1469H0.0418352C0.0418352 21.2288 -0.0661572 23.2299 0.0648735 25.217C0.332695 29.3014 2.58182 31.5951 6.54441 32.0564C7.10453 32.1219 7.30468 31.9783 7.29172 31.4321C7.26772 30.2699 7.26724 29.1063 7.29028 27.9413ZM0.0187968 17.6056H4.08363C4.08363 16.4365 4.06491 15.3245 4.08363 14.2124C4.1297 11.9382 4.79494 11.2345 7.10021 10.9614C7.14485 10.9614 7.18373 10.9098 7.27732 10.8513V7.1306C4.52568 6.82821 1.50045 8.70109 0.502602 11.3028C-0.287901 13.3596 0.132549 15.4875 0.0187968 17.6056ZM8.12974 36H12.7187V2.69505L8.12974 3.1786V36ZM16.7 12.8147C16.713 13.6508 16.7144 14.487 16.7187 15.3231C16.7187 15.8902 16.7187 16.4574 16.7187 17.0078H21.3422C21.3422 15.0806 21.4258 13.2565 21.3178 11.4421C21.2213 9.82287 20.4092 8.50182 18.9693 7.60161C17.4891 6.67632 15.8318 6.54533 14.1356 6.67492C13.9772 6.68747 13.7165 6.93272 13.7122 7.07486C13.6777 8.25517 13.6935 9.44383 13.6935 10.6534C14.0492 10.6729 14.3055 10.6882 14.5574 10.6994C16.1082 10.7691 16.6784 11.3348 16.7 12.8147ZM21.3826 18.5992C20.0377 18.5992 18.7907 18.6215 17.5409 18.5895C16.9578 18.5755 16.7648 18.7748 16.7706 19.335C16.7878 20.9306 16.7375 22.5247 16.7418 24.1203C16.7418 26.1576 15.9397 27.2585 13.9311 27.455C13.8644 27.4746 13.802 27.5058 13.7468 27.547V31.7122C17.7007 31.9268 20.2263 29.8839 21.0341 26.9394C21.7843 24.1956 21.2127 21.4057 21.3826 18.5992Z" fill="#FAB319"/>
</svg>
