<svg width="110" height="34" viewBox="0 0 110 34" fill="none" xmlns="http://www.w3.org/2000/svg">
<path d="M16.5693 7.86064C16.5693 6.07402 15.7138 4.67494 13.2075 4.67494H4.59879V15.4239H6.98687V11.6423H12.5003C13.7384 11.6423 14.063 11.9935 14.063 13.2498V15.4239H16.4511V12.8634C16.4511 11.5861 16.0024 10.8368 15.0066 10.5815C16.043 10.228 16.5693 9.21523 16.5693 7.86064ZM12.884 9.38266H6.98687V6.93806H12.884C13.7685 6.93806 14.1812 7.41457 14.1812 8.12875C14.1812 8.84293 13.8277 9.37914 12.884 9.37914V9.38266ZM108.938 17.8123H109.823V28.5554H107.435V20.9324L102.511 28.5554H99.7695V17.8064H102.158V25.1625L105.751 19.5333C106.668 18.1038 107.464 17.8064 108.938 17.8064V17.8123ZM62.3265 15.4239V13.1315C63.2992 13.1315 63.5356 12.5356 63.742 10.5406L64.39 4.67494H72.9407V15.4239H70.5527V6.93806H66.4338L66.0118 11.0463C65.6582 14.5903 64.7146 15.5433 62.3265 15.4239ZM0 33.2292H21.051V0H0V33.2292ZM2.29997 2.32049H18.7511V30.9087H2.29997V2.32049ZM14.063 17.8064H16.4511V28.5554H8.81039C5.74414 28.5554 4.59415 27.394 4.59415 24.2973V17.8064H6.98223V24.3523C6.98223 25.7221 7.51317 26.2876 8.75126 26.2876H14.0584L14.063 17.8064ZM77.5685 11.8249H82.8466V15.4274H85.2347V4.67494H79.1022C76.0951 4.67494 75.1804 5.50853 75.1804 8.63453V15.4251H77.5685V11.8249ZM79.1022 6.94157H82.8466V9.58754H77.5685V8.63453C77.5685 7.41457 77.7169 6.93806 79.1022 6.93806V6.94157ZM50.6215 11.4631V8.63453C50.6215 5.5378 51.477 4.67494 54.5433 4.67494H60.7928V6.93806H54.425C53.1869 6.93806 53.0095 7.14646 53.0095 8.51628V8.87337H59.0539V11.106H53.0095V11.5826C53.0095 12.9524 53.1869 13.1608 54.425 13.1608H60.8821V15.4239H54.5433C51.477 15.4239 50.6215 14.5306 50.6215 11.4631ZM106.078 4.6726H103.455C100.418 4.6726 99.5342 5.53546 99.5342 8.63218V11.4631C99.5342 14.5306 100.713 15.4239 103.749 15.4239H105.784C108.85 15.4239 110 14.5306 110 11.4631V8.63453C110 5.5378 109.144 4.67494 106.078 4.67494V4.6726ZM107.612 11.4631C107.612 12.833 107.317 13.1608 106.078 13.1608H103.455C102.217 13.1608 101.922 12.833 101.922 11.4631V8.63453C101.922 7.26471 102.217 6.93806 103.455 6.93806H106.078C107.317 6.93806 107.612 7.26471 107.612 8.63453V11.4631ZM66.719 17.8064H73.2653V19.1458C73.2653 20.2183 73.1772 21.1116 72.9419 21.9147H70.9062V20.0684H66.719C65.4809 20.0684 65.1864 20.3962 65.1864 21.766V24.5946C65.1864 25.9645 65.4809 26.2923 66.719 26.2923H73.2653V28.5554H66.719C63.6829 28.5554 62.7984 27.6621 62.7984 24.5946V21.766C62.7984 18.6693 63.6829 17.8064 66.719 17.8064ZM47.9389 4.67494H39.2445L38.7147 10.1238C38.4492 12.7147 38.0655 13.1315 37.3584 13.1315H37.2123V16.4366H39.4821L39.5702 15.0668H46.5872L46.6753 16.4366H48.9463V13.1011H47.9436L47.9389 4.67494ZM41.3404 6.93806H45.5509V12.833H40.4432C40.7689 12.2569 40.9069 11.4538 41.01 10.4211L41.3404 6.93806ZM57.1968 17.8064H54.3694C51.3333 17.8064 50.4487 18.6693 50.4487 21.766V24.5946C50.4487 27.6621 51.3333 28.5554 54.3694 28.5554H57.2003C60.2665 28.5554 61.1209 27.6621 61.1209 24.5946V21.766C61.1174 18.6693 60.2631 17.8064 57.1968 17.8064ZM58.7293 24.597C58.7293 25.9668 58.4349 26.2946 57.1968 26.2946H54.3694C53.1313 26.2946 52.8368 25.9668 52.8368 24.597V21.766C52.8368 20.3962 53.1313 20.0684 54.3694 20.0684H57.2003C58.4384 20.0684 58.7328 20.3962 58.7328 21.766L58.7293 24.597ZM78.8657 17.8064H85.4376V19.1458C85.4376 20.2183 85.3495 21.1116 85.113 21.9147H83.0819V20.0684H78.8657C77.6276 20.0684 77.3332 20.3962 77.3332 21.766V24.5946C77.3332 25.9645 77.6276 26.2923 78.8657 26.2923H85.4376V28.5554H78.8657C75.8296 28.5554 74.9451 27.6621 74.9451 24.5946V21.766C74.9451 18.6693 75.8296 17.8064 78.8657 17.8064ZM34.1773 22.8748C34.7373 22.5294 35.2021 21.7965 35.2021 20.6643C35.2021 19.2055 34.3767 17.8064 31.9295 17.8064H25.68V28.5554H32.1718C34.5298 28.5554 35.6797 27.3343 35.6797 25.3393C35.674 24.0011 34.9112 23.2073 34.1773 22.8748ZM32.8141 21.0214C32.8141 21.677 32.4895 22.0341 31.6641 22.0341H28.0704V20.0988H31.6641C32.4895 20.0988 32.8141 20.3962 32.8141 21.0214ZM32.195 26.2899H28.068V24.2071H32.195C32.9914 24.2071 33.2859 24.5946 33.2859 25.2198C33.2859 25.845 32.9914 26.2923 32.195 26.2923V26.2899ZM95.1429 4.6726H97.531V15.4216H95.1406V11.106H89.8636V15.4239H87.4756V4.67494H89.8636V8.84293H95.1406L95.1429 4.6726ZM29.2493 4.6726H35.7644V6.01431C35.7644 7.08675 35.6763 7.98006 35.4409 8.78439H33.4041V6.93806H29.247C28.0089 6.93806 27.7133 7.26471 27.7133 8.63453V11.4631C27.7133 12.833 28.0089 13.1608 29.247 13.1608H35.7621V15.4239H29.247C26.2097 15.4239 25.3252 14.5306 25.3252 11.4631V8.63453C25.3252 5.5378 26.2097 4.67494 29.247 4.67494L29.2493 4.6726ZM96.6441 17.8064H97.5287V28.5554H95.1406V20.9324L90.2172 28.5554H87.4756V17.8064H89.8636V25.1625L93.4573 19.5333C94.3743 18.1038 95.1754 17.8064 96.6441 17.8064ZM45.2564 17.8064H38.3008V19.9138L39.5389 20.093V28.5554H41.927V25.7853H45.2587C48.0004 25.7853 48.944 24.3804 48.944 22.2133V21.3785C48.9417 19.3249 48.0572 17.8064 45.2564 17.8064ZM46.5826 22.1278C46.5826 23.1405 46.1989 23.5327 45.2564 23.5327H41.9247V20.0684H45.2564C46.1989 20.0684 46.5826 20.5449 46.5826 21.4733V22.1278Z" fill="white"/>
</svg>
