<svg width="45" height="43" viewBox="0 0 45 43" fill="none" xmlns="http://www.w3.org/2000/svg">
<path d="M34.8572 0.720491C34.4784 0.720491 34.0948 0.737574 33.7175 0.771649C29.8203 1.12421 26.267 3.49082 23.6785 7.44841C20.6755 3.01932 15.7119 0.175293 10.9374 0.175293C9.88815 0.175293 8.84855 0.310956 7.84793 0.57883C4.75574 1.40653 2.23457 3.70854 0.931545 6.89558C-0.512503 10.4264 -0.263984 14.5622 1.58033 17.689C4.11323 21.9837 8.45591 24.605 12.655 27.1395C14.8119 28.4421 17.0426 29.7876 18.9557 31.3301C19.5255 31.7888 20.2414 32.3868 20.8555 33.0383C20.0806 33.8019 18.5484 36.3402 18.5337 36.3706C18.0522 37.3834 17.3908 39.5249 17.9657 41.1269C18.2114 41.8103 18.6527 42.3055 19.2789 42.5984C19.6 42.7483 19.938 42.8249 20.2829 42.8249C21.7659 42.8249 23.1395 41.4194 24.0315 40.241C25.6625 38.0834 25.9067 35.8187 24.7564 33.5066C26.7299 31.7214 28.8768 30.0621 30.9541 28.4563C34.5278 25.6944 38.2228 22.8377 41.1631 19.2474C42.5995 17.4929 47.0406 11.3228 43.9016 5.57448C42.2421 2.535 38.8609 0.720491 34.8572 0.720491ZM22.012 37.8417C21.7135 38.4119 21.4122 38.8236 21.0984 39.0866C21.1616 38.2395 21.4844 37.4125 21.6918 36.9575C21.7499 36.8298 22.1313 36.24 22.4055 35.8456C22.4917 36.5165 22.3617 37.1735 22.012 37.8417ZM18.4411 6.08097C19.361 6.83888 20.1742 7.69503 20.8583 8.62386C20.9397 8.73463 21.0647 8.94344 21.2104 9.18514C22.0499 10.5838 22.952 11.9493 23.9285 11.9493C24.413 11.9493 24.8233 11.6087 25.1476 10.9362C27.2189 6.64688 30.5241 4.08954 34.4539 3.73471C34.6824 3.71372 34.9139 3.704 35.1428 3.704C38.1495 3.704 40.7934 5.46389 41.7226 8.08284C42.9468 11.5354 41.0092 15.6267 35.7994 20.5902C33.5625 22.722 31.0813 24.6387 28.6825 26.4927C26.7995 27.9471 24.8541 29.4504 23.0327 31.0515C21.3946 29.2359 19.2461 27.715 17.5409 26.5831C16.5293 25.9113 15.4359 25.2542 14.2784 24.5584C8.58785 21.1384 2.13879 17.2621 3.1555 10.0444C3.73668 5.9175 6.80832 3.25094 10.9809 3.25094C11.2875 3.25094 11.6012 3.26547 11.9141 3.29564C14.2086 3.5139 16.5264 4.50335 18.4411 6.08097Z" fill="#FAB319"/>
</svg>
