<svg width="49" height="49" viewBox="0 0 49 49" fill="none" xmlns="http://www.w3.org/2000/svg">
<path d="M24.4948 48.9999C18.8266 48.9987 13.3343 47.0323 8.95347 43.4356C4.57267 39.8389 1.57448 34.8345 0.469755 29.275C-0.634971 23.7156 0.222117 17.9451 2.89498 12.9468C5.56785 7.94842 9.89111 4.03146 15.1282 1.86329C20.3652 -0.304883 26.192 -0.590116 31.6158 1.05618C37.0396 2.70247 41.7248 6.17843 44.8731 10.8918C48.0213 15.6052 49.4379 21.2644 48.8815 26.9051C48.3251 32.5459 45.83 37.8192 41.8214 41.8266C39.5505 44.1077 36.85 45.9162 33.8761 47.1474C30.9021 48.3787 27.7135 49.0083 24.4948 48.9999ZM24.4948 2.78101C19.4702 2.78482 14.6024 4.53064 10.7206 7.72104C6.83891 10.9114 4.18343 15.349 3.20664 20.2778C2.22986 25.2065 2.99219 30.3214 5.36375 34.7511C7.73532 39.1808 11.5694 42.6512 16.2128 44.571C20.8561 46.4909 26.0215 46.7413 30.8288 45.2798C35.6361 43.8183 39.788 40.7351 42.5771 36.5557C45.3661 32.3762 46.6197 27.3591 46.1244 22.3589C45.6291 17.3588 43.4155 12.6851 39.8606 9.13411C37.8439 7.11545 35.4484 5.51504 32.8114 4.42479C30.1745 3.33454 27.3482 2.77593 24.4948 2.78101Z" fill="#FAB319"/>
<path d="M20.0248 29.2126C19.8364 29.2133 19.6537 29.1474 19.509 29.0267C19.3643 28.906 19.2668 28.7381 19.2337 28.5525L17.5836 19.632L10.6626 18.341C10.5584 18.3216 10.459 18.2818 10.3702 18.2239C10.2814 18.1661 10.2048 18.0913 10.1449 18.0039C10.0849 17.9165 10.0428 17.8181 10.0209 17.7144C9.99895 17.6107 9.99766 17.5036 10.0171 17.3994C10.0365 17.2952 10.0763 17.1959 10.1342 17.107C10.192 17.0182 10.2668 16.9416 10.3542 16.8817C10.4416 16.8217 10.54 16.7796 10.6437 16.7577C10.7474 16.7358 10.8545 16.7345 10.9587 16.7539L18.428 18.1468C18.5881 18.1787 18.7351 18.2576 18.8501 18.3735C18.9651 18.4893 19.0429 18.6369 19.0735 18.7972L20.8208 28.2565C20.859 28.4675 20.812 28.6851 20.6901 28.8616C20.5682 29.0381 20.3813 29.1591 20.1704 29.198L20.0248 29.2126Z" fill="#FAB319"/>
<path d="M18.2776 19.7484C18.1012 19.7495 17.9294 19.6927 17.7884 19.5867C17.6475 19.4808 17.5452 19.3315 17.4973 19.1618C17.4493 18.9921 17.4584 18.8113 17.5231 18.6473C17.5877 18.4832 17.7045 18.3449 17.8553 18.2536L24.3346 14.2835C24.4251 14.2183 24.5281 14.1724 24.6371 14.1488C24.7461 14.1252 24.8588 14.1244 24.9682 14.1464C25.0776 14.1683 25.1812 14.2127 25.2727 14.2765C25.3641 14.3404 25.4414 14.4225 25.4997 14.5176C25.5579 14.6127 25.596 14.7188 25.6113 14.8293C25.6267 14.9398 25.6191 15.0522 25.589 15.1597C25.5589 15.2671 25.507 15.3671 25.4365 15.4535C25.3659 15.5399 25.2783 15.6109 25.1791 15.6619L18.6998 19.632C18.5721 19.7081 18.4262 19.7484 18.2776 19.7484Z" fill="#FAB319"/>
<path d="M22.9708 27.0723L20.1558 28.7952L12.2496 27.3392L10.3956 17.3073L17.2584 13.1188L25.1645 14.5748L26.4119 21.2725L28.3532 20.8308L27.1302 14.2156C27.0564 13.8168 26.8633 13.4497 26.5765 13.1628C26.2897 12.876 25.9226 12.6829 25.5237 12.6092L17.6175 11.1532C17.496 11.1298 17.3724 11.1184 17.2486 11.1192C16.8786 11.1197 16.5159 11.2221 16.2003 11.4152L9.34245 15.6134C8.99662 15.8259 8.72307 16.138 8.55765 16.5087C8.39224 16.8793 8.34267 17.2913 8.41546 17.6907L10.2743 27.679C10.3478 28.0785 10.5407 28.4463 10.8275 28.7339C11.1143 29.0216 11.4815 29.2156 11.8808 29.2903L19.787 30.7463C19.9089 30.7673 20.0322 30.7786 20.1558 30.7803C20.5259 30.7803 20.8887 30.6778 21.2042 30.4842L22.5874 29.6349L22.9708 27.0723Z" fill="#FAB319"/>
<path d="M31.5857 20.1077L38.5891 24.0584L37.0894 34.134L29.2415 35.891L22.238 31.9451L23.7377 21.8549L31.5857 20.1077ZM31.5857 18.0984C31.4372 18.0999 31.2893 18.1161 31.144 18.1469L23.2961 19.9136C22.9003 20.0034 22.541 20.211 22.2655 20.509C21.99 20.8071 21.8112 21.1815 21.7527 21.5831L20.2675 31.6539C20.2082 32.0556 20.272 32.4659 20.4504 32.8307C20.6289 33.1954 20.9137 33.4975 21.2673 33.6972L28.2708 37.6479C28.5677 37.8136 28.9015 37.9021 29.2415 37.9051C29.3901 37.9059 29.5383 37.8896 29.6831 37.8566L37.5311 36.0948C37.9271 36.0061 38.2869 35.7996 38.5633 35.5024C38.8396 35.2053 39.0195 34.8314 39.0793 34.4301L40.5596 24.3544C40.6183 23.9527 40.5542 23.5427 40.3758 23.1781C40.1974 22.8135 39.9129 22.5113 39.5598 22.3111L32.5564 18.3653C32.2606 18.1961 31.9264 18.1058 31.5857 18.1032V18.0984Z" fill="#FAB319"/>
<path d="M29.2949 36.5898H29.1735C28.9592 36.5562 28.7667 36.4396 28.6378 36.2652C28.5088 36.0908 28.4536 35.8727 28.4843 35.6579L29.8239 26.5821L23.6115 23.0779C23.5182 23.025 23.4361 22.9542 23.3701 22.8696C23.3041 22.785 23.2554 22.6882 23.2267 22.5848C23.1981 22.4814 23.1902 22.3733 23.2033 22.2668C23.2164 22.1603 23.2504 22.0574 23.3033 21.9641C23.3562 21.8707 23.427 21.7886 23.5116 21.7226C23.5962 21.6566 23.693 21.6079 23.7964 21.5793C23.8999 21.5507 24.0079 21.5427 24.1144 21.5558C24.2209 21.569 24.3238 21.603 24.4172 21.6559L31.1149 25.4318C31.2589 25.5126 31.3749 25.6352 31.4477 25.7834C31.5205 25.9316 31.5466 26.0984 31.5226 26.2617L30.1005 35.9006C30.0704 36.0927 29.9727 36.2676 29.825 36.394C29.6773 36.5204 29.4893 36.5898 29.2949 36.5898Z" fill="#FAB319"/>
<path d="M30.712 26.9557C30.5114 26.9552 30.318 26.8807 30.1688 26.7465C30.0196 26.6123 29.9252 26.4277 29.9036 26.2283C29.8819 26.0288 29.9346 25.8283 30.0516 25.6652C30.1685 25.5022 30.3414 25.3879 30.5373 25.3444L38.0601 23.6603C38.2712 23.6126 38.4926 23.6508 38.6755 23.7664C38.8585 23.882 38.988 24.0655 39.0356 24.2766C39.0833 24.4877 39.0451 24.7091 38.9295 24.8921C38.8139 25.075 38.6303 25.2046 38.4192 25.2522L30.911 26.9363C30.8459 26.9516 30.7789 26.9581 30.712 26.9557Z" fill="#FAB319"/>
<path d="M19.2434 30.1057L18.7581 29.9844C18.6173 29.9552 18.4572 29.9407 18.3164 29.9019H18.2485H18.0301H17.7874H17.7L7.44967 40.1474C7.35619 40.2407 7.28203 40.3515 7.23143 40.4735C7.18083 40.5955 7.15479 40.7263 7.15479 40.8584C7.15479 40.9905 7.18083 41.1213 7.23143 41.2433C7.28203 41.3653 7.35619 41.4761 7.44967 41.5694C7.63936 41.7559 7.8947 41.8603 8.16069 41.8603C8.42667 41.8603 8.68201 41.7559 8.87171 41.5694L20.1025 30.3047C19.821 30.2416 19.5298 30.1639 19.2434 30.1057Z" fill="#FAB319"/>
<path d="M41.5497 7.4451C41.4568 7.35177 41.3463 7.27771 41.2247 7.22718C41.1031 7.17665 40.9727 7.15063 40.8411 7.15063C40.7094 7.15063 40.579 7.17665 40.4574 7.22718C40.3358 7.27771 40.2254 7.35177 40.1325 7.4451L28.5328 19.0447C28.9268 18.9462 29.3275 18.8764 29.7316 18.836C30.2834 18.7625 30.8447 18.8379 31.3575 19.0544L41.5497 8.8623C41.643 8.7694 41.717 8.65897 41.7676 8.53737C41.8181 8.41576 41.8441 8.28538 41.8441 8.15369C41.8441 8.02201 41.8181 7.89162 41.7676 7.77002C41.717 7.64842 41.643 7.538 41.5497 7.4451Z" fill="#FAB319"/>
</svg>
