<svg width="412" height="546" viewBox="0 0 412 546" fill="none" xmlns="http://www.w3.org/2000/svg">
<path d="M64.9723 347.418L64.8931 347.301L18.4631 275.775C18.1884 275.35 18.0301 274.861 18.0039 274.356C17.9777 273.851 18.0846 273.348 18.3139 272.898L57.0452 196.927C57.2743 196.477 57.6183 196.095 58.0424 195.82C58.4666 195.544 58.9557 195.386 59.4606 195.361L144.622 190.912C145.126 190.889 145.628 190.998 146.078 191.228C146.527 191.457 146.91 191.8 147.187 192.222L193.616 263.749C193.891 264.173 194.049 264.663 194.076 265.167C194.102 265.672 193.995 266.175 193.766 266.626L155.034 342.601C154.804 343.05 154.459 343.431 154.036 343.706C153.612 343.981 153.123 344.14 152.619 344.168L67.4578 348.612C66.9768 348.636 66.4971 348.54 66.063 348.331C65.6288 348.123 65.2539 347.809 64.9723 347.418ZM24.2174 274.036L68.8334 342.769L150.67 338.497L187.895 265.493L143.274 196.75L61.4377 201.026L24.2174 274.036Z" fill="#016349"/>
<path d="M68.1153 216.587C67.8116 216.167 67.6268 215.673 67.5804 215.158C67.534 214.642 67.6277 214.123 67.8517 213.656C68.0757 213.189 68.4215 212.791 68.8528 212.504C69.2842 212.217 69.7849 212.052 70.3022 212.026L135.585 208.618C136.337 208.596 137.068 208.87 137.621 209.381C138.174 209.891 138.505 210.597 138.544 211.349C138.583 212.101 138.327 212.837 137.83 213.402C137.332 213.967 136.634 214.315 135.883 214.372L70.6007 217.78C70.1196 217.806 69.6399 217.709 69.2056 217.501C68.7714 217.292 68.3965 216.978 68.1153 216.587Z" fill="#016349"/>
<path d="M74.0187 329.708C73.9907 329.67 73.9674 329.629 73.9395 329.587L38.3325 274.74C37.9163 274.099 37.7719 273.318 37.9311 272.571C38.0902 271.823 38.5399 271.169 39.1811 270.753C39.8223 270.337 40.6027 270.192 41.3504 270.352C42.0981 270.511 42.7519 270.96 43.168 271.602L78.7704 326.453C79.2033 327.083 79.368 327.859 79.2285 328.611C79.0891 329.363 78.6568 330.028 78.0267 330.461C77.3966 330.894 76.6203 331.059 75.8687 330.919C75.117 330.78 74.4515 330.347 74.0187 329.717V329.708Z" fill="#016349"/>
<path d="M139.325 326.299C139.014 325.87 138.828 325.363 138.787 324.835C138.746 324.307 138.851 323.777 139.092 323.305L168.79 265.045C169.157 264.399 169.758 263.92 170.469 263.706C171.18 263.493 171.945 263.562 172.607 263.899C173.268 264.237 173.774 264.816 174.018 265.517C174.263 266.218 174.228 266.986 173.92 267.661L144.244 325.921C144.072 326.258 143.836 326.558 143.548 326.804C143.26 327.049 142.927 327.236 142.567 327.352C142.207 327.469 141.828 327.513 141.45 327.483C141.073 327.452 140.706 327.348 140.369 327.176C139.953 326.975 139.594 326.674 139.325 326.299Z" fill="#016349"/>
<path d="M66.5168 37.8955C69.8319 35.7995 72.3546 32.6592 73.6868 28.9702C75.019 25.2813 75.0847 21.2537 73.8738 17.5232C72.6629 13.7927 70.2443 10.5717 66.9995 8.36837C63.7547 6.16508 59.8686 5.10504 55.9545 5.35552C52.0404 5.606 48.3212 7.15275 45.3837 9.75167C42.4463 12.3506 40.4579 15.8537 39.7324 19.7081C39.0069 23.5625 39.5856 27.5488 41.3771 31.0379C43.1686 34.5269 46.071 37.32 49.6262 38.9764C52.3057 40.23 55.2578 40.7881 58.21 40.5992C61.1621 40.4103 64.019 39.4804 66.5168 37.8955ZM50.7183 12.9267C53.1348 11.3938 56.023 10.7835 58.8531 11.2076C61.6832 11.6317 64.2654 13.0618 66.1265 15.2357C67.9875 17.4096 69.0025 20.1815 68.9853 23.0432C68.9681 25.9048 67.9198 28.6643 66.0328 30.8157C64.1457 32.967 61.5464 34.366 58.7114 34.756C55.8764 35.1461 52.9959 34.5011 50.5979 32.9393C48.2 31.3774 46.4455 29.0035 45.6562 26.2529C44.8668 23.5022 45.0955 20.5591 46.3003 17.9634C47.2591 15.897 48.7922 14.15 50.7166 12.931L50.7183 12.9267Z" fill="#016349"/>
<path d="M61.8235 200.147C62.256 199.874 62.6082 199.492 62.844 199.038C63.0799 198.584 63.1908 198.076 63.1654 197.566L61.5719 38.4264C61.5339 37.6637 61.1945 36.9474 60.6283 36.435C60.0622 35.9225 59.3157 35.656 58.553 35.694C57.7904 35.7319 57.074 36.0713 56.5615 36.6375C56.0491 37.2036 55.7827 37.9501 55.8206 38.7128L57.4099 197.85C57.4363 198.352 57.5937 198.839 57.8665 199.262C58.1392 199.684 58.5178 200.028 58.9646 200.259C59.4114 200.49 59.9108 200.6 60.4133 200.578C60.9157 200.556 61.4037 200.403 61.8287 200.134L61.8235 200.147Z" fill="#016349"/>
<path d="M79.2508 508.301C75.3299 508.232 71.4978 509.472 68.3594 511.823C65.2209 514.174 62.955 517.504 61.9192 521.286C60.8833 525.068 61.1366 529.088 62.6391 532.71C64.1416 536.332 66.8076 539.351 70.2164 541.29C73.6252 543.229 77.5826 543.977 81.4639 543.417C85.3452 542.856 88.9293 541.019 91.6505 538.195C94.3718 535.372 96.0752 531.722 96.4917 527.823C96.9083 523.923 96.0143 519.996 93.9509 516.662C92.4034 514.142 90.2445 512.055 87.6746 510.594C85.1046 509.132 82.207 508.343 79.2508 508.301ZM78.7435 537.836C75.8834 537.788 73.1365 536.711 71.0065 534.801C68.8765 532.892 67.5062 530.279 67.147 527.441C66.7877 524.603 67.4635 521.731 69.0505 519.351C70.6374 516.971 73.0291 515.243 75.787 514.483C78.5449 513.724 81.4841 513.984 84.0656 515.216C86.6472 516.448 88.698 518.57 89.842 521.192C90.986 523.814 91.1465 526.76 90.2941 529.491C89.4416 532.221 87.6334 534.553 85.201 536.058C83.264 537.259 81.0221 537.876 78.7435 537.836Z" fill="#016349"/>
<path d="M119.994 473.857C119.48 473.846 118.973 473.972 118.524 474.221C118.075 474.471 117.7 474.835 117.439 475.277L86.8964 513C86.6944 513.326 86.5596 513.69 86.5 514.069C86.4404 514.448 86.4571 514.835 86.5492 515.208C86.6412 515.58 86.8068 515.931 87.0362 516.239C87.2656 516.546 87.554 516.805 87.8848 517C88.2155 517.195 88.5818 517.321 88.9622 517.373C89.3425 517.424 89.7294 517.398 90.0998 517.298C90.4703 517.198 90.817 517.025 91.1196 516.788C91.4221 516.552 91.6745 516.258 91.8619 515.923L122.409 478.201C122.663 477.767 122.8 477.274 122.805 476.771C122.81 476.268 122.684 475.772 122.438 475.333C122.193 474.894 121.837 474.526 121.405 474.267C120.974 474.008 120.483 473.866 119.98 473.855L119.994 473.857Z" fill="#016349"/>
<path d="M188.543 418.665C188.756 418.276 188.875 417.843 188.892 417.401C188.909 416.958 188.823 416.518 188.641 416.114L155.435 340.302C155.281 339.957 155.06 339.646 154.785 339.386C154.51 339.126 154.187 338.924 153.833 338.789C153.48 338.654 153.104 338.59 152.726 338.601C152.348 338.612 151.976 338.697 151.63 338.852C151.285 339.006 150.974 339.228 150.714 339.502C150.455 339.777 150.252 340.101 150.117 340.454C149.983 340.807 149.919 341.184 149.93 341.562C149.94 341.94 150.026 342.312 150.18 342.657L183.404 418.464C183.624 418.954 183.976 419.374 184.421 419.675C184.866 419.976 185.386 420.146 185.923 420.167C186.46 420.188 186.992 420.058 187.459 419.793C187.926 419.527 188.31 419.136 188.566 418.665H188.543Z" fill="#016349"/>
<path d="M188.543 419.677C188.863 419.083 188.965 418.396 188.83 417.735C188.696 417.074 188.334 416.482 187.808 416.06C187.281 415.639 186.624 415.415 185.95 415.428C185.275 415.441 184.627 415.691 184.118 416.133L119.875 472.495L48.6891 427.095L70.5354 348.644C70.6527 348.275 70.6944 347.886 70.6581 347.501C70.6217 347.115 70.508 346.741 70.3237 346.4C70.1395 346.06 69.8885 345.76 69.5857 345.518C69.2829 345.277 68.9344 345.099 68.5613 344.995C68.1882 344.891 67.798 344.864 67.414 344.914C67.03 344.964 66.66 345.092 66.3263 345.288C65.9926 345.485 65.702 345.747 65.4718 346.058C65.2416 346.37 65.0765 346.724 64.9864 347.101L42.5897 427.608C42.4243 428.203 42.4541 428.834 42.6749 429.41C42.8957 429.986 43.2958 430.476 43.8161 430.807L118.597 478.51C119.122 478.846 119.742 479.002 120.363 478.956C120.984 478.91 121.574 478.663 122.043 478.254L187.909 420.474C188.166 420.248 188.381 419.978 188.543 419.677Z" fill="#016349"/>
<path d="M114.867 455.605C114.442 455.012 114.258 454.281 114.35 453.558C114.443 452.835 114.806 452.174 115.366 451.707L161.087 413.694C161.376 413.44 161.714 413.246 162.079 413.125C162.444 413.003 162.83 412.956 163.214 412.986C163.597 413.016 163.971 413.123 164.313 413.3C164.655 413.477 164.958 413.721 165.204 414.017C165.45 414.313 165.634 414.655 165.746 415.023C165.858 415.392 165.895 415.779 165.854 416.162C165.814 416.544 165.697 416.915 165.511 417.252C165.325 417.589 165.073 417.885 164.771 418.124L119.064 456.137C118.773 456.379 118.438 456.561 118.077 456.674C117.716 456.786 117.337 456.826 116.96 456.792C116.584 456.757 116.218 456.648 115.883 456.472C115.549 456.295 115.253 456.055 115.011 455.764C114.96 455.714 114.912 455.661 114.867 455.605Z" fill="#016349"/>
<path d="M324 340.572C320.168 340.382 316.379 341.446 313.206 343.601C310.032 345.756 307.647 348.887 306.412 352.519C305.176 356.151 305.157 360.086 306.358 363.73C307.558 367.373 309.913 370.527 313.065 372.713C316.218 374.899 319.996 375.998 323.83 375.845C327.663 375.692 331.342 374.295 334.31 371.864C337.278 369.434 339.374 366.103 340.28 362.375C341.186 358.647 340.853 354.726 339.332 351.204C338.044 348.163 335.92 345.55 333.206 343.668C330.492 341.786 327.3 340.712 324 340.572ZM322.55 370.08C319.635 369.937 316.876 368.727 314.796 366.681C312.716 364.634 311.462 361.894 311.272 358.982C311.082 356.071 311.969 353.191 313.766 350.892C315.562 348.592 318.141 347.034 321.012 346.513C323.883 345.992 326.845 346.546 329.334 348.068C331.823 349.591 333.666 351.976 334.51 354.768C335.355 357.561 335.142 360.567 333.914 363.214C332.685 365.86 330.525 367.962 327.847 369.12C326.179 369.843 324.366 370.172 322.55 370.08Z" fill="#016349"/>
<path d="M253.653 316.903C253.2 316.88 252.748 316.964 252.334 317.149C251.92 317.334 251.556 317.614 251.27 317.966L212.758 365.529L155.104 339.038C154.412 338.732 153.627 338.711 152.919 338.979C152.21 339.247 151.636 339.783 151.32 340.471C151.004 341.159 150.971 341.944 151.229 342.655C151.487 343.367 152.015 343.949 152.698 344.275L212.385 371.68C212.966 371.946 213.62 372.012 214.242 371.866C214.864 371.719 215.42 371.37 215.822 370.873L254.32 323.371L308.435 354.091C309.124 354.419 309.916 354.46 310.635 354.205C311.355 353.949 311.944 353.419 312.272 352.729C312.601 352.04 312.642 351.248 312.386 350.528C312.131 349.809 311.6 349.22 310.911 348.892L254.749 317.183C254.406 317.018 254.033 316.923 253.653 316.903Z" fill="#016349"/>
<path d="M400.441 186.342C396.841 187.667 392.907 187.783 389.235 186.672C385.563 185.562 382.353 183.285 380.09 180.187C377.827 177.09 376.635 173.339 376.693 169.503C376.752 165.667 378.059 161.955 380.416 158.928C382.772 155.901 386.051 153.724 389.755 152.727C393.46 151.729 397.388 151.965 400.946 153.4C404.504 154.834 407.498 157.388 409.475 160.676C411.452 163.964 412.304 167.806 411.903 171.621C411.581 174.908 410.333 178.036 408.304 180.642C406.275 183.247 403.549 185.224 400.441 186.342ZM390.262 158.606C387.517 159.61 385.237 161.588 383.857 164.165C382.476 166.741 382.092 169.735 382.776 172.576C383.461 175.418 385.167 177.908 387.57 179.573C389.972 181.237 392.903 181.96 395.804 181.603C398.704 181.246 401.373 179.834 403.3 177.637C405.227 175.44 406.279 172.61 406.254 169.688C406.23 166.765 405.131 163.954 403.167 161.789C401.204 159.624 398.512 158.257 395.606 157.949C393.798 157.754 391.969 157.979 390.262 158.606Z" fill="#016349"/>
<path d="M293.648 258.676C293.222 258.833 292.766 258.887 292.315 258.833C291.864 258.78 291.433 258.62 291.056 258.368L240.121 224.472L192.978 266.948C192.407 267.436 191.667 267.682 190.918 267.633C190.168 267.584 189.467 267.244 188.964 266.686C188.462 266.128 188.197 265.395 188.226 264.645C188.255 263.894 188.576 263.184 189.121 262.667L237.925 218.713C238.401 218.286 239.005 218.028 239.643 217.981C240.281 217.934 240.916 218.099 241.45 218.452L292.356 252.338L381.369 178.35C381.647 178.093 381.972 177.893 382.327 177.762C382.681 177.631 383.058 177.571 383.436 177.585C383.814 177.6 384.185 177.689 384.529 177.847C384.872 178.005 385.181 178.229 385.438 178.506C385.695 178.783 385.895 179.109 386.026 179.463C386.157 179.818 386.217 180.195 386.202 180.573C386.188 180.95 386.099 181.322 385.941 181.665C385.783 182.009 385.559 182.318 385.282 182.575L294.609 258.088C294.33 258.344 294.003 258.544 293.648 258.676Z" fill="#016349"/>
</svg>
